<mxfile host="Electron" modified="2024-05-21T21:01:14.061Z" agent="Mozilla/5.0 (Windows NT 10.0; Win64; x64) AppleWebKit/537.36 (KHTML, like Gecko) draw.io/24.4.0 Chrome/120.0.6099.109 Electron/28.1.0 Safari/537.36" etag="jrhYOp7zjsE0X2dbqqsx" version="24.4.0" type="device">
  <diagram name="Page-1" id="6hne0jZfkh3isc4GfPqD">
    <mxGraphModel dx="3379" dy="7085" grid="1" gridSize="10" guides="1" tooltips="1" connect="1" arrows="1" fold="1" page="1" pageScale="1" pageWidth="850" pageHeight="1100" math="0" shadow="0">
      <root>
        <mxCell id="0" />
        <mxCell id="1" parent="0" />
        <mxCell id="TVm7w0jnragQNhiyeoIk-14" value="package" style="shape=folder;fontStyle=1;spacingTop=10;tabWidth=40;tabHeight=14;tabPosition=left;html=1;whiteSpace=wrap;" parent="1" vertex="1">
          <mxGeometry x="-340" y="400" width="70" height="50" as="geometry" />
        </mxCell>
        <mxCell id="TVm7w0jnragQNhiyeoIk-15" value="package" style="shape=folder;fontStyle=1;spacingTop=10;tabWidth=40;tabHeight=14;tabPosition=left;html=1;whiteSpace=wrap;" parent="1" vertex="1">
          <mxGeometry x="1070" y="420" width="70" height="50" as="geometry" />
        </mxCell>
        <mxCell id="TVm7w0jnragQNhiyeoIk-19" value="&lt;div style=&quot;text-align: justify;&quot;&gt;&lt;br&gt;&lt;/div&gt;" style="shape=folder;fontStyle=1;spacingTop=10;tabWidth=40;tabHeight=14;tabPosition=left;html=1;whiteSpace=wrap;align=center;fontFamily=Times New Roman;fillColor=#f5f5f5;fontColor=#333333;strokeColor=#666666;" parent="1" vertex="1">
          <mxGeometry x="-2030" y="-5440" width="3740" height="3170" as="geometry" />
        </mxCell>
        <mxCell id="TVm7w0jnragQNhiyeoIk-20" value="&lt;b style=&quot;&quot;&gt;&lt;font face=&quot;Times New Roman&quot; style=&quot;font-size: 24px;&quot;&gt;GestionImmobilier&lt;/font&gt;&lt;/b&gt;" style="text;html=1;align=center;verticalAlign=middle;whiteSpace=wrap;rounded=0;" parent="1" vertex="1">
          <mxGeometry x="-1870" y="-5270" width="360" height="70" as="geometry" />
        </mxCell>
        <mxCell id="TVm7w0jnragQNhiyeoIk-22" value="" style="shape=folder;fontStyle=1;spacingTop=10;tabWidth=30;tabHeight=30;tabPosition=left;html=1;whiteSpace=wrap;fillColor=#e1d5e7;strokeColor=#9673a6;" parent="1" vertex="1">
          <mxGeometry x="-1600" y="-5140" width="1380" height="1080" as="geometry" />
        </mxCell>
        <mxCell id="TVm7w0jnragQNhiyeoIk-23" value="" style="shape=folder;fontStyle=1;spacingTop=10;tabWidth=40;tabHeight=14;tabPosition=left;html=1;whiteSpace=wrap;fillColor=#dae8fc;strokeColor=#6c8ebf;" parent="1" vertex="1">
          <mxGeometry x="-15" y="-5105" width="1015" height="1010" as="geometry" />
        </mxCell>
        <mxCell id="TVm7w0jnragQNhiyeoIk-24" value="" style="shape=folder;fontStyle=1;spacingTop=10;tabWidth=40;tabHeight=14;tabPosition=left;html=1;whiteSpace=wrap;fillColor=#d5e8d4;strokeColor=#82b366;" parent="1" vertex="1">
          <mxGeometry x="-1560" y="-3820" width="1070" height="1170" as="geometry" />
        </mxCell>
        <mxCell id="TVm7w0jnragQNhiyeoIk-25" value="" style="shape=folder;fontStyle=1;spacingTop=10;tabWidth=70;tabHeight=50;tabPosition=left;html=1;whiteSpace=wrap;fillColor=#FFF2CC;strokeColor=#d6b656;" parent="1" vertex="1">
          <mxGeometry x="80" y="-3820" width="1070" height="1130" as="geometry" />
        </mxCell>
        <mxCell id="TVm7w0jnragQNhiyeoIk-42" value="&lt;font face=&quot;Times New Roman&quot;&gt;&lt;span style=&quot;font-size: 24px;&quot;&gt;&lt;b&gt;GestionBiensImmobiliers&lt;/b&gt;&lt;/span&gt;&lt;/font&gt;" style="text;html=1;align=center;verticalAlign=middle;whiteSpace=wrap;rounded=0;" parent="1" vertex="1">
          <mxGeometry x="-1565" y="-5140" width="290" height="140" as="geometry" />
        </mxCell>
        <mxCell id="TVm7w0jnragQNhiyeoIk-43" value="&lt;font face=&quot;Times New Roman&quot; style=&quot;font-size: 24px;&quot;&gt;&lt;b&gt;GestionClients&lt;/b&gt;&lt;/font&gt;" style="text;html=1;align=center;verticalAlign=middle;whiteSpace=wrap;rounded=0;" parent="1" vertex="1">
          <mxGeometry x="-40" y="-5040" width="320" height="30" as="geometry" />
        </mxCell>
        <mxCell id="TVm7w0jnragQNhiyeoIk-44" value="&lt;font face=&quot;Times New Roman&quot; style=&quot;font-size: 24px;&quot;&gt;&lt;b&gt;GestionTransactions&lt;/b&gt;&lt;/font&gt;" style="text;html=1;align=center;verticalAlign=middle;whiteSpace=wrap;rounded=0;" parent="1" vertex="1">
          <mxGeometry x="-1580" y="-3770" width="300" height="30" as="geometry" />
        </mxCell>
        <mxCell id="TVm7w0jnragQNhiyeoIk-45" value="&lt;font face=&quot;Times New Roman&quot; style=&quot;font-size: 24px;&quot;&gt;&lt;b&gt;GestionRendezVous&lt;/b&gt;&lt;/font&gt;" style="text;html=1;align=center;verticalAlign=middle;whiteSpace=wrap;rounded=0;" parent="1" vertex="1">
          <mxGeometry x="90" y="-3750" width="320" height="50" as="geometry" />
        </mxCell>
        <mxCell id="TVm7w0jnragQNhiyeoIk-47" value="&lt;font color=&quot;#0066cc&quot; style=&quot;font-size: 18px;&quot; face=&quot;Times New Roman&quot;&gt;Class AgentImmobilier&lt;/font&gt;&lt;div&gt;&lt;font color=&quot;#0066cc&quot; size=&quot;3&quot; face=&quot;Times New Roman&quot;&gt;&lt;br&gt;&lt;/font&gt;&lt;/div&gt;&lt;div&gt;&lt;br&gt;&lt;/div&gt;" style="swimlane;fontStyle=1;align=center;verticalAlign=top;childLayout=stackLayout;horizontal=1;startSize=40;horizontalStack=0;resizeParent=1;resizeParentMax=0;resizeLast=0;collapsible=1;marginBottom=0;whiteSpace=wrap;html=1;" parent="1" vertex="1">
          <mxGeometry x="-1520" y="-4540" width="280" height="390" as="geometry" />
        </mxCell>
        <mxCell id="TVm7w0jnragQNhiyeoIk-48" value="&lt;font face=&quot;Times New Roman&quot; style=&quot;font-size: 14px;&quot;&gt;-id: int&lt;/font&gt;&lt;div&gt;&lt;font face=&quot;jk5zXTyvX7KkBohK4GZ9&quot; size=&quot;3&quot;&gt;- nom: String&lt;/font&gt;&lt;/div&gt;&lt;div&gt;&lt;font face=&quot;jk5zXTyvX7KkBohK4GZ9&quot; size=&quot;3&quot;&gt;- prenom : String&lt;/font&gt;&lt;/div&gt;&lt;div&gt;&lt;font face=&quot;jk5zXTyvX7KkBohK4GZ9&quot; size=&quot;3&quot;&gt;- email: String&lt;/font&gt;&lt;/div&gt;&lt;div&gt;&lt;font face=&quot;jk5zXTyvX7KkBohK4GZ9&quot; size=&quot;3&quot;&gt;- telephone : String&lt;/font&gt;&lt;/div&gt;&lt;div&gt;&lt;font face=&quot;jk5zXTyvX7KkBohK4GZ9&quot; size=&quot;3&quot;&gt;- biens : List&amp;lt;BienImmobilier&amp;gt;&lt;/font&gt;&lt;/div&gt;" style="text;strokeColor=none;fillColor=none;align=left;verticalAlign=top;spacingLeft=4;spacingRight=4;overflow=hidden;rotatable=0;points=[[0,0.5],[1,0.5]];portConstraint=eastwest;whiteSpace=wrap;html=1;" parent="TVm7w0jnragQNhiyeoIk-47" vertex="1">
          <mxGeometry y="40" width="280" height="144" as="geometry" />
        </mxCell>
        <mxCell id="TVm7w0jnragQNhiyeoIk-49" value="" style="line;strokeWidth=1;fillColor=none;align=left;verticalAlign=middle;spacingTop=-1;spacingLeft=3;spacingRight=3;rotatable=0;labelPosition=right;points=[];portConstraint=eastwest;strokeColor=inherit;" parent="TVm7w0jnragQNhiyeoIk-47" vertex="1">
          <mxGeometry y="184" width="280" height="20" as="geometry" />
        </mxCell>
        <mxCell id="TVm7w0jnragQNhiyeoIk-50" value="&lt;font face=&quot;Times New Roman&quot; style=&quot;font-size: 14px;&quot;&gt;+getId():int&lt;/font&gt;&lt;div&gt;&lt;font face=&quot;eLocMw6za7Eccy_QC5Rz&quot; size=&quot;3&quot;&gt;+getNom():String&lt;/font&gt;&lt;/div&gt;&lt;div&gt;&lt;font face=&quot;eLocMw6za7Eccy_QC5Rz&quot; size=&quot;3&quot;&gt;+getPrenom():String&lt;/font&gt;&lt;/div&gt;&lt;div&gt;&lt;font face=&quot;eLocMw6za7Eccy_QC5Rz&quot; size=&quot;3&quot;&gt;+getEmail():String&lt;/font&gt;&lt;/div&gt;&lt;div&gt;&lt;font face=&quot;eLocMw6za7Eccy_QC5Rz&quot; size=&quot;3&quot;&gt;+getTelephone():String&lt;/font&gt;&lt;/div&gt;&lt;div&gt;&lt;font face=&quot;eLocMw6za7Eccy_QC5Rz&quot; size=&quot;3&quot;&gt;+ajouterBien(bien:BienImmobilier):void&lt;/font&gt;&lt;/div&gt;&lt;div&gt;&lt;font face=&quot;eLocMw6za7Eccy_QC5Rz&quot; size=&quot;3&quot;&gt;+modifierBien(bien:BienImmobilier):void&lt;/font&gt;&lt;/div&gt;&lt;div&gt;&lt;font face=&quot;eLocMw6za7Eccy_QC5Rz&quot; size=&quot;3&quot;&gt;+supprimerBien(id:int):void&lt;/font&gt;&lt;/div&gt;&lt;div&gt;&lt;font face=&quot;eLocMw6za7Eccy_QC5Rz&quot; size=&quot;3&quot;&gt;+affecterBien(bien:BienImmobilier):void&lt;/font&gt;&lt;/div&gt;&lt;div&gt;&lt;font face=&quot;eLocMw6za7Eccy_QC5Rz&quot; size=&quot;3&quot;&gt;&lt;br&gt;&lt;/font&gt;&lt;/div&gt;" style="text;strokeColor=none;fillColor=none;align=left;verticalAlign=top;spacingLeft=4;spacingRight=4;overflow=hidden;rotatable=0;points=[[0,0.5],[1,0.5]];portConstraint=eastwest;whiteSpace=wrap;html=1;" parent="TVm7w0jnragQNhiyeoIk-47" vertex="1">
          <mxGeometry y="204" width="280" height="186" as="geometry" />
        </mxCell>
        <mxCell id="TVm7w0jnragQNhiyeoIk-68" value="&lt;p style=&quot;margin:0px;margin-top:4px;text-align:center;&quot;&gt;&lt;font style=&quot;&quot; face=&quot;Times New Roman&quot;&gt;&lt;font style=&quot;&quot; color=&quot;#ff0000&quot;&gt;&lt;i style=&quot;&quot;&gt;&lt;span style=&quot;font-size: 14px;&quot;&gt;&amp;lt;&amp;lt;&lt;/span&gt;&lt;font style=&quot;font-size: 18px;&quot;&gt;Interface&lt;/font&gt;&lt;span style=&quot;font-size: 14px;&quot;&gt;&amp;gt;&amp;gt;&lt;/span&gt;&lt;/i&gt;&lt;br&gt;&lt;/font&gt;&lt;span style=&quot;background-color: rgb(255, 255, 255);&quot;&gt;&lt;font style=&quot;&quot;&gt;&lt;span style=&quot;font-size: 14px; text-align: start; white-space-collapse: preserve;&quot;&gt; &lt;/span&gt;&lt;span style=&quot;font-size: 14px; text-align: start; white-space-collapse: preserve;&quot;&gt;&lt;font color=&quot;#ff0000&quot;&gt;interface &lt;/font&gt;&lt;/span&gt;&lt;span style=&quot;text-align: start; white-space-collapse: preserve;&quot;&gt;&lt;font style=&quot;font-size: 18px;&quot; color=&quot;#ff0000&quot;&gt;IBienImmobilier&lt;/font&gt;&lt;/span&gt;&lt;br&gt;&lt;/font&gt;&lt;/span&gt;&lt;/font&gt;&lt;/p&gt;&lt;hr size=&quot;1&quot; style=&quot;border-style:solid;&quot;&gt;&lt;p style=&quot;margin:0px;margin-left:4px;&quot;&gt;&lt;font size=&quot;3&quot; face=&quot;lsZZFcpLuVAfL3DLnrPb&quot;&gt;&lt;font style=&quot;&quot;&gt;+ getId(): int&amp;nbsp;&lt;/font&gt;&lt;br&gt;+ getType() : String&lt;/font&gt;&lt;/p&gt;&lt;p style=&quot;margin:0px;margin-left:4px;&quot;&gt;&lt;font size=&quot;3&quot; face=&quot;lsZZFcpLuVAfL3DLnrPb&quot;&gt;+getTaille ():double&lt;/font&gt;&lt;/p&gt;&lt;p style=&quot;margin:0px;margin-left:4px;&quot;&gt;&lt;font size=&quot;3&quot; face=&quot;lsZZFcpLuVAfL3DLnrPb&quot;&gt;+getPrix():double&lt;/font&gt;&lt;/p&gt;&lt;p style=&quot;margin:0px;margin-left:4px;&quot;&gt;&lt;font size=&quot;3&quot; face=&quot;lsZZFcpLuVAfL3DLnrPb&quot;&gt;+getLocalisation():String&amp;nbsp;&lt;/font&gt;&lt;/p&gt;&lt;p style=&quot;margin:0px;margin-left:4px;&quot;&gt;&lt;font size=&quot;3&quot; face=&quot;lsZZFcpLuVAfL3DLnrPb&quot;&gt;+getDescription():String&lt;/font&gt;&lt;/p&gt;&lt;p style=&quot;margin:0px;margin-left:4px;&quot;&gt;&lt;font size=&quot;3&quot; face=&quot;lsZZFcpLuVAfL3DLnrPb&quot;&gt;+getAgent():AgentImmobilier&lt;/font&gt;&lt;/p&gt;&lt;p style=&quot;margin:0px;margin-left:4px;&quot;&gt;&lt;font size=&quot;3&quot; face=&quot;lsZZFcpLuVAfL3DLnrPb&quot;&gt;+setType(type:string):void&lt;/font&gt;&lt;/p&gt;&lt;p style=&quot;margin:0px;margin-left:4px;&quot;&gt;&lt;font size=&quot;3&quot; face=&quot;lsZZFcpLuVAfL3DLnrPb&quot;&gt;+setTaille(taille:double):void&lt;/font&gt;&lt;/p&gt;&lt;p style=&quot;margin:0px;margin-left:4px;&quot;&gt;&lt;font size=&quot;3&quot; face=&quot;lsZZFcpLuVAfL3DLnrPb&quot;&gt;+setPrix(prix:double):void&lt;/font&gt;&lt;/p&gt;&lt;p style=&quot;margin:0px;margin-left:4px;&quot;&gt;&lt;font size=&quot;3&quot; face=&quot;lsZZFcpLuVAfL3DLnrPb&quot;&gt;+setLocalisation(localisation:string):void&lt;/font&gt;&lt;/p&gt;&lt;p style=&quot;margin:0px;margin-left:4px;&quot;&gt;&lt;font size=&quot;3&quot; face=&quot;lsZZFcpLuVAfL3DLnrPb&quot;&gt;+setDescription(description:string):void&lt;/font&gt;&lt;/p&gt;&lt;p style=&quot;margin:0px;margin-left:4px;&quot;&gt;&lt;font size=&quot;3&quot; face=&quot;lsZZFcpLuVAfL3DLnrPb&quot;&gt;+setAgent(agent:AgentImmobilier):void&lt;/font&gt;&lt;/p&gt;&lt;p style=&quot;margin:0px;margin-left:4px;&quot;&gt;&lt;font size=&quot;3&quot; face=&quot;lsZZFcpLuVAfL3DLnrPb&quot;&gt;+ajouterDescription(description: String):string&lt;/font&gt;&lt;/p&gt;&lt;p style=&quot;margin:0px;margin-left:4px;&quot;&gt;&lt;font size=&quot;3&quot; face=&quot;lsZZFcpLuVAfL3DLnrPb&quot;&gt;+modifierBien(bien:BienImmobilier):void&lt;/font&gt;&lt;/p&gt;&lt;p style=&quot;margin:0px;margin-left:4px;&quot;&gt;&lt;font face=&quot;lsZZFcpLuVAfL3DLnrPb&quot;&gt;&lt;font size=&quot;3&quot;&gt;+supprimerBien():void&lt;br&gt;&lt;/font&gt;&lt;br&gt;&lt;/font&gt;&lt;/p&gt;" style="verticalAlign=top;align=left;overflow=fill;html=1;whiteSpace=wrap;" parent="1" vertex="1">
          <mxGeometry x="-1542.5" y="-4986" width="345" height="410" as="geometry" />
        </mxCell>
        <mxCell id="TVm7w0jnragQNhiyeoIk-69" value="&lt;font face=&quot;Times New Roman&quot; style=&quot;font-size: 18px;&quot; color=&quot;#0066cc&quot;&gt;Class BienImmobilier&lt;/font&gt;" style="swimlane;fontStyle=1;align=center;verticalAlign=top;childLayout=stackLayout;horizontal=1;startSize=30;horizontalStack=0;resizeParent=1;resizeParentMax=0;resizeLast=0;collapsible=1;marginBottom=0;whiteSpace=wrap;html=1;" parent="1" vertex="1">
          <mxGeometry x="-1050" y="-4990" width="320" height="414" as="geometry" />
        </mxCell>
        <mxCell id="TVm7w0jnragQNhiyeoIk-70" value="&lt;div style=&quot;font-weight: 700;&quot;&gt;&lt;font style=&quot;font-weight: normal;&quot; face=&quot;G03OhSH7SzFTBV4VF6LP&quot; size=&quot;3&quot;&gt;- id : int&lt;/font&gt;&lt;/div&gt;&lt;div style=&quot;font-weight: 700;&quot;&gt;&lt;font style=&quot;font-weight: normal;&quot; face=&quot;G03OhSH7SzFTBV4VF6LP&quot; size=&quot;3&quot;&gt;- type : string&lt;/font&gt;&lt;/div&gt;&lt;div style=&quot;font-weight: 700;&quot;&gt;&lt;font style=&quot;font-weight: normal;&quot; face=&quot;G03OhSH7SzFTBV4VF6LP&quot; size=&quot;3&quot;&gt;- taille : double&lt;/font&gt;&lt;/div&gt;&lt;div style=&quot;font-weight: 700;&quot;&gt;&lt;font style=&quot;font-weight: normal;&quot; face=&quot;G03OhSH7SzFTBV4VF6LP&quot; size=&quot;3&quot;&gt;- prix : double&amp;nbsp;&lt;/font&gt;&lt;/div&gt;&lt;div style=&quot;font-weight: 700;&quot;&gt;&lt;font style=&quot;font-weight: normal;&quot; face=&quot;G03OhSH7SzFTBV4VF6LP&quot; size=&quot;3&quot;&gt;- localisation : String&lt;/font&gt;&lt;/div&gt;&lt;div style=&quot;font-weight: 700;&quot;&gt;&lt;font style=&quot;font-weight: normal;&quot; face=&quot;G03OhSH7SzFTBV4VF6LP&quot; size=&quot;3&quot;&gt;- description : String&lt;/font&gt;&lt;/div&gt;&lt;div style=&quot;font-weight: 700;&quot;&gt;&lt;font style=&quot;font-weight: normal;&quot; face=&quot;G03OhSH7SzFTBV4VF6LP&quot; size=&quot;3&quot;&gt;- agent : AgentImmobilier&lt;/font&gt;&lt;/div&gt;" style="text;strokeColor=none;fillColor=none;align=left;verticalAlign=top;spacingLeft=4;spacingRight=4;overflow=hidden;rotatable=0;points=[[0,0.5],[1,0.5]];portConstraint=eastwest;whiteSpace=wrap;html=1;" parent="TVm7w0jnragQNhiyeoIk-69" vertex="1">
          <mxGeometry y="30" width="320" height="154" as="geometry" />
        </mxCell>
        <mxCell id="TVm7w0jnragQNhiyeoIk-71" value="" style="line;strokeWidth=1;fillColor=none;align=left;verticalAlign=middle;spacingTop=-1;spacingLeft=3;spacingRight=3;rotatable=0;labelPosition=right;points=[];portConstraint=eastwest;strokeColor=inherit;" parent="TVm7w0jnragQNhiyeoIk-69" vertex="1">
          <mxGeometry y="184" width="320" height="8" as="geometry" />
        </mxCell>
        <mxCell id="TVm7w0jnragQNhiyeoIk-72" value="&lt;div style=&quot;font-weight: 700;&quot;&gt;&lt;font style=&quot;font-weight: normal;&quot; face=&quot;G03OhSH7SzFTBV4VF6LP&quot; size=&quot;3&quot;&gt;+getId():int&lt;/font&gt;&lt;/div&gt;&lt;div style=&quot;font-weight: 700;&quot;&gt;&lt;font style=&quot;font-weight: normal;&quot; face=&quot;G03OhSH7SzFTBV4VF6LP&quot; size=&quot;3&quot;&gt;+setType(type:string):void&lt;/font&gt;&lt;/div&gt;&lt;div style=&quot;font-weight: 700;&quot;&gt;&lt;font style=&quot;font-weight: normal;&quot; face=&quot;G03OhSH7SzFTBV4VF6LP&quot; size=&quot;3&quot;&gt;+setTaille(taille:double):void&lt;/font&gt;&lt;/div&gt;&lt;div style=&quot;font-weight: 700;&quot;&gt;&lt;font style=&quot;font-weight: normal;&quot; face=&quot;G03OhSH7SzFTBV4VF6LP&quot; size=&quot;3&quot;&gt;+setPrix(prix:double):void&lt;/font&gt;&lt;/div&gt;&lt;div style=&quot;font-weight: 700;&quot;&gt;&lt;font style=&quot;font-weight: normal;&quot; face=&quot;G03OhSH7SzFTBV4VF6LP&quot; size=&quot;3&quot;&gt;+setLocalisation(localisation:String):void&lt;/font&gt;&lt;/div&gt;&lt;div style=&quot;font-weight: 700;&quot;&gt;&lt;font style=&quot;font-weight: normal;&quot; face=&quot;G03OhSH7SzFTBV4VF6LP&quot; size=&quot;3&quot;&gt;+setDescription(description:String):void&lt;/font&gt;&lt;/div&gt;&lt;div style=&quot;font-weight: 700;&quot;&gt;&lt;font style=&quot;font-weight: normal;&quot; face=&quot;G03OhSH7SzFTBV4VF6LP&quot; size=&quot;3&quot;&gt;+setAgent(agent: AgentImmobilier):void&lt;/font&gt;&lt;/div&gt;&lt;div style=&quot;font-weight: 700;&quot;&gt;&lt;font style=&quot;font-weight: normal;&quot; face=&quot;G03OhSH7SzFTBV4VF6LP&quot; size=&quot;3&quot;&gt;+getAgent():AgentImmobilier&lt;/font&gt;&lt;/div&gt;&lt;div style=&quot;font-weight: 700;&quot;&gt;&lt;font style=&quot;font-weight: normal;&quot; face=&quot;G03OhSH7SzFTBV4VF6LP&quot; size=&quot;3&quot;&gt;+ajouterDescription(description:String):void&lt;/font&gt;&lt;/div&gt;&lt;div style=&quot;font-weight: 700;&quot;&gt;&lt;font style=&quot;font-weight: normal;&quot; face=&quot;G03OhSH7SzFTBV4VF6LP&quot; size=&quot;3&quot;&gt;+modifierBien(bien:BienImmobilier):void&lt;/font&gt;&lt;/div&gt;&lt;div style=&quot;font-weight: 700;&quot;&gt;&lt;font style=&quot;font-weight: normal;&quot; face=&quot;G03OhSH7SzFTBV4VF6LP&quot; size=&quot;3&quot;&gt;+supprimerBien():void&lt;/font&gt;&lt;/div&gt;" style="text;strokeColor=none;fillColor=none;align=left;verticalAlign=top;spacingLeft=4;spacingRight=4;overflow=hidden;rotatable=0;points=[[0,0.5],[1,0.5]];portConstraint=eastwest;whiteSpace=wrap;html=1;" parent="TVm7w0jnragQNhiyeoIk-69" vertex="1">
          <mxGeometry y="192" width="320" height="222" as="geometry" />
        </mxCell>
        <mxCell id="TVm7w0jnragQNhiyeoIk-82" value="&lt;font color=&quot;#0066cc&quot; face=&quot;Times New Roman&quot; style=&quot;font-size: 14px;&quot;&gt;Class RechercheBiens&lt;/font&gt;" style="swimlane;fontStyle=1;align=center;verticalAlign=top;childLayout=stackLayout;horizontal=1;startSize=26;horizontalStack=0;resizeParent=1;resizeParentMax=0;resizeLast=0;collapsible=1;marginBottom=0;whiteSpace=wrap;html=1;" parent="1" vertex="1">
          <mxGeometry x="-1060" y="-4430" width="740" height="170" as="geometry" />
        </mxCell>
        <mxCell id="TVm7w0jnragQNhiyeoIk-85" value="&lt;font face=&quot;Times New Roman&quot; style=&quot;font-size: 15px;&quot;&gt;+rechercherBiens(criteria:Map&amp;lt;String,Object&amp;gt;):List&amp;lt;BienImmobilier&amp;gt;&lt;/font&gt;&lt;div&gt;&lt;font face=&quot;e_z8mQWD3puAbvo9ToiE&quot; size=&quot;3&quot;&gt;-filtrerParType(biens:List&amp;lt;BienImmobilier&amp;gt;,type:String): List&amp;lt;BienImmobilier&amp;gt;&lt;/font&gt;&lt;/div&gt;&lt;div&gt;&lt;font face=&quot;e_z8mQWD3puAbvo9ToiE&quot; size=&quot;3&quot;&gt;-filtrerParPrix(biens:List&amp;lt;BienImmobilier&amp;gt;,prixMin: double, prixMax: double): List&amp;lt;BienImmobilier&amp;gt;&lt;/font&gt;&lt;/div&gt;&lt;div&gt;&lt;font face=&quot;e_z8mQWD3puAbvo9ToiE&quot; size=&quot;3&quot;&gt;-filtrerParLocalisation(biens:List&amp;lt;BienImmobilier&amp;gt;,localisation:String):List&amp;lt;BienImmobilier&amp;gt;&lt;/font&gt;&lt;/div&gt;&lt;div&gt;&lt;font face=&quot;e_z8mQWD3puAbvo9ToiE&quot; size=&quot;3&quot;&gt;-filtrerParTaille(biens: List&amp;lt;BienImmobilier&amp;gt;,tailleMin: double, tailleMax: double): List&amp;lt;BienImmobilier&amp;gt;&lt;/font&gt;&lt;/div&gt;" style="text;strokeColor=none;fillColor=none;align=left;verticalAlign=top;spacingLeft=4;spacingRight=4;overflow=hidden;rotatable=0;points=[[0,0.5],[1,0.5]];portConstraint=eastwest;whiteSpace=wrap;html=1;" parent="TVm7w0jnragQNhiyeoIk-82" vertex="1">
          <mxGeometry y="26" width="740" height="144" as="geometry" />
        </mxCell>
        <mxCell id="TVm7w0jnragQNhiyeoIk-89" value="&lt;p style=&quot;margin:0px;margin-top:4px;text-align:center;&quot;&gt;&lt;font face=&quot;Times New Roman&quot; color=&quot;#ff0000&quot; style=&quot;font-size: 24px;&quot;&gt;&lt;i style=&quot;&quot;&gt;&amp;lt;&amp;lt;Interface&amp;gt;&amp;gt;&lt;/i&gt;&lt;br&gt;&lt;b style=&quot;&quot;&gt;IClient&lt;/b&gt;&lt;/font&gt;&lt;/p&gt;&lt;p style=&quot;margin:0px;margin-left:4px;&quot;&gt;&lt;br&gt;&lt;/p&gt;&lt;hr size=&quot;1&quot; style=&quot;border-style:solid;&quot;&gt;&lt;p style=&quot;margin:0px;margin-left:4px;&quot;&gt;&lt;font size=&quot;3&quot;&gt;+ getId():int&lt;/font&gt;&lt;/p&gt;&lt;p style=&quot;margin:0px;margin-left:4px;&quot;&gt;&lt;font size=&quot;3&quot;&gt;+getNom():String&lt;/font&gt;&lt;/p&gt;&lt;p style=&quot;margin:0px;margin-left:4px;&quot;&gt;&lt;font size=&quot;3&quot;&gt;+getPrenom():String&lt;/font&gt;&lt;/p&gt;&lt;p style=&quot;margin:0px;margin-left:4px;&quot;&gt;&lt;font size=&quot;3&quot;&gt;+getEmail():String&lt;/font&gt;&lt;/p&gt;&lt;p style=&quot;margin:0px;margin-left:4px;&quot;&gt;&lt;font size=&quot;3&quot;&gt;+getTelephone():String&lt;/font&gt;&lt;/p&gt;&lt;p style=&quot;margin:0px;margin-left:4px;&quot;&gt;&lt;font size=&quot;3&quot;&gt;+getInteractions():List&amp;lt;Interaction&amp;gt;&lt;/font&gt;&lt;/p&gt;&lt;p style=&quot;margin:0px;margin-left:4px;&quot;&gt;&lt;font size=&quot;3&quot;&gt;+getDemandes():List&amp;lt;Demande&amp;gt;&lt;/font&gt;&lt;/p&gt;&lt;p style=&quot;margin:0px;margin-left:4px;&quot;&gt;&lt;font size=&quot;3&quot;&gt;+getPreferences():List&amp;lt;Preference&amp;gt;&lt;/font&gt;&lt;/p&gt;&lt;p style=&quot;margin:0px;margin-left:4px;&quot;&gt;&lt;font size=&quot;3&quot;&gt;+ajouterInteractions(interaction:Interaction):void&lt;/font&gt;&lt;/p&gt;&lt;p style=&quot;margin:0px;margin-left:4px;&quot;&gt;&lt;font size=&quot;3&quot;&gt;+ajouterDemande(demande:Demande):void&lt;/font&gt;&lt;/p&gt;&lt;p style=&quot;margin:0px;margin-left:4px;&quot;&gt;&lt;font size=&quot;3&quot;&gt;+ajouterPreference(preference:Preference):void&lt;/font&gt;&lt;/p&gt;&lt;p style=&quot;margin:0px;margin-left:4px;&quot;&gt;&lt;font size=&quot;3&quot;&gt;+modifierClient(nom:String, prenom:String, Email:String, telephone:String):void&lt;/font&gt;&lt;/p&gt;&lt;p style=&quot;margin:0px;margin-left:4px;&quot;&gt;&lt;font size=&quot;3&quot;&gt;+supprimerClient():void&lt;br&gt;&lt;br&gt;&lt;/font&gt;&lt;/p&gt;&lt;p style=&quot;margin:0px;margin-left:4px;&quot;&gt;&lt;font size=&quot;3&quot;&gt;&lt;br&gt;&lt;/font&gt;&lt;/p&gt;" style="verticalAlign=top;align=left;overflow=fill;html=1;whiteSpace=wrap;" parent="1" vertex="1">
          <mxGeometry x="60" y="-4976" width="360" height="386" as="geometry" />
        </mxCell>
        <mxCell id="TVm7w0jnragQNhiyeoIk-90" value="&lt;font color=&quot;#0066cc&quot; style=&quot;font-size: 14px;&quot; face=&quot;Times New Roman&quot;&gt;Class Client&lt;/font&gt;" style="swimlane;fontStyle=1;align=center;verticalAlign=top;childLayout=stackLayout;horizontal=1;startSize=26;horizontalStack=0;resizeParent=1;resizeParentMax=0;resizeLast=0;collapsible=1;marginBottom=0;whiteSpace=wrap;html=1;" parent="1" vertex="1">
          <mxGeometry x="600" y="-4990" width="250" height="420" as="geometry" />
        </mxCell>
        <mxCell id="TVm7w0jnragQNhiyeoIk-91" value="&lt;font style=&quot;font-size: 14px;&quot; face=&quot;Times New Roman&quot;&gt;-id:int&lt;/font&gt;&lt;div&gt;&lt;font size=&quot;3&quot; face=&quot;qXGnAFOGdi4WFoQqlo4F&quot;&gt;-nom:String&lt;/font&gt;&lt;/div&gt;&lt;div&gt;&lt;font size=&quot;3&quot; face=&quot;qXGnAFOGdi4WFoQqlo4F&quot;&gt;-prenom:String&lt;/font&gt;&lt;/div&gt;&lt;div&gt;&lt;font size=&quot;3&quot; face=&quot;qXGnAFOGdi4WFoQqlo4F&quot;&gt;-email:String&lt;/font&gt;&lt;/div&gt;&lt;div&gt;&lt;font size=&quot;3&quot; face=&quot;qXGnAFOGdi4WFoQqlo4F&quot;&gt;-telephone:String&lt;/font&gt;&lt;/div&gt;&lt;div&gt;&lt;font size=&quot;3&quot; face=&quot;qXGnAFOGdi4WFoQqlo4F&quot;&gt;-interactions:List&amp;lt;Interaction&amp;gt;&lt;/font&gt;&lt;/div&gt;&lt;div&gt;&lt;font size=&quot;3&quot; face=&quot;qXGnAFOGdi4WFoQqlo4F&quot;&gt;-demandes:List&amp;lt;Demande&amp;gt;&lt;/font&gt;&lt;/div&gt;&lt;div&gt;&lt;font size=&quot;3&quot; face=&quot;qXGnAFOGdi4WFoQqlo4F&quot;&gt;-preferences:List&amp;lt;Preference&amp;gt;&lt;/font&gt;&lt;/div&gt;&lt;div&gt;&lt;br&gt;&lt;/div&gt;" style="text;strokeColor=none;fillColor=none;align=left;verticalAlign=top;spacingLeft=4;spacingRight=4;overflow=hidden;rotatable=0;points=[[0,0.5],[1,0.5]];portConstraint=eastwest;whiteSpace=wrap;html=1;" parent="TVm7w0jnragQNhiyeoIk-90" vertex="1">
          <mxGeometry y="26" width="250" height="164" as="geometry" />
        </mxCell>
        <mxCell id="TVm7w0jnragQNhiyeoIk-92" value="" style="line;strokeWidth=1;fillColor=none;align=left;verticalAlign=middle;spacingTop=-1;spacingLeft=3;spacingRight=3;rotatable=0;labelPosition=right;points=[];portConstraint=eastwest;strokeColor=inherit;" parent="TVm7w0jnragQNhiyeoIk-90" vertex="1">
          <mxGeometry y="190" width="250" height="8" as="geometry" />
        </mxCell>
        <mxCell id="TVm7w0jnragQNhiyeoIk-93" value="&lt;font face=&quot;Times New Roman&quot; style=&quot;&quot;&gt;&lt;span style=&quot;font-size: 14px;&quot;&gt;+ ajouterClient(nom:String, prenom: String , email : String , telephone:&amp;nbsp; String):void&amp;nbsp;&lt;/span&gt;&lt;/font&gt;&lt;div&gt;&lt;font face=&quot;Times New Roman&quot; style=&quot;&quot;&gt;&lt;span style=&quot;font-size: 14px;&quot;&gt;+ getId():int&lt;/span&gt;&lt;/font&gt;&lt;div&gt;&lt;font face=&quot;MKgf6H8XLcHPh-X72O2C&quot; size=&quot;3&quot;&gt;+getNom():String&lt;/font&gt;&lt;/div&gt;&lt;div&gt;&lt;font face=&quot;MKgf6H8XLcHPh-X72O2C&quot; size=&quot;3&quot;&gt;+getPrenom():String&lt;/font&gt;&lt;/div&gt;&lt;div&gt;&lt;font face=&quot;MKgf6H8XLcHPh-X72O2C&quot; size=&quot;3&quot;&gt;+getEmail():String&lt;/font&gt;&lt;/div&gt;&lt;div&gt;&lt;font face=&quot;MKgf6H8XLcHPh-X72O2C&quot; size=&quot;3&quot;&gt;+getTelephones():String&lt;/font&gt;&lt;/div&gt;&lt;div&gt;&lt;font face=&quot;MKgf6H8XLcHPh-X72O2C&quot; size=&quot;3&quot;&gt;+getInteractions():List&amp;lt;Interaction&amp;gt;&lt;/font&gt;&lt;/div&gt;&lt;div&gt;&lt;font face=&quot;MKgf6H8XLcHPh-X72O2C&quot; size=&quot;3&quot;&gt;+getDemande():List&amp;lt;Demande&amp;gt;&lt;/font&gt;&lt;/div&gt;&lt;div&gt;&lt;font face=&quot;MKgf6H8XLcHPh-X72O2C&quot; size=&quot;3&quot;&gt;+getPreferences():List&amp;lt;Preference&amp;gt;&lt;/font&gt;&lt;/div&gt;&lt;/div&gt;" style="text;strokeColor=none;fillColor=none;align=left;verticalAlign=top;spacingLeft=4;spacingRight=4;overflow=hidden;rotatable=0;points=[[0,0.5],[1,0.5]];portConstraint=eastwest;whiteSpace=wrap;html=1;" parent="TVm7w0jnragQNhiyeoIk-90" vertex="1">
          <mxGeometry y="198" width="250" height="222" as="geometry" />
        </mxCell>
        <mxCell id="TVm7w0jnragQNhiyeoIk-94" value="&lt;font color=&quot;#0066cc&quot; style=&quot;font-size: 14px;&quot; face=&quot;Times New Roman&quot;&gt;Class Interaction&amp;nbsp;&lt;/font&gt;" style="swimlane;fontStyle=1;align=center;verticalAlign=top;childLayout=stackLayout;horizontal=1;startSize=26;horizontalStack=0;resizeParent=1;resizeParentMax=0;resizeLast=0;collapsible=1;marginBottom=0;whiteSpace=wrap;html=1;" parent="1" vertex="1">
          <mxGeometry x="50" y="-4490" width="160" height="220" as="geometry" />
        </mxCell>
        <mxCell id="TVm7w0jnragQNhiyeoIk-95" value="&lt;font face=&quot;Times New Roman&quot; style=&quot;font-size: 14px;&quot;&gt;-id:int&lt;/font&gt;&lt;div&gt;&lt;font face=&quot;_UhefeEy-zyZGLL6itHB&quot; size=&quot;3&quot;&gt;-date:Date&lt;/font&gt;&lt;/div&gt;&lt;div&gt;&lt;font face=&quot;_UhefeEy-zyZGLL6itHB&quot; size=&quot;3&quot;&gt;-type:String&lt;/font&gt;&lt;/div&gt;&lt;div&gt;&lt;font face=&quot;_UhefeEy-zyZGLL6itHB&quot; size=&quot;3&quot;&gt;-details:String&lt;/font&gt;&lt;/div&gt;" style="text;strokeColor=none;fillColor=none;align=left;verticalAlign=top;spacingLeft=4;spacingRight=4;overflow=hidden;rotatable=0;points=[[0,0.5],[1,0.5]];portConstraint=eastwest;whiteSpace=wrap;html=1;" parent="TVm7w0jnragQNhiyeoIk-94" vertex="1">
          <mxGeometry y="26" width="160" height="94" as="geometry" />
        </mxCell>
        <mxCell id="TVm7w0jnragQNhiyeoIk-96" value="" style="line;strokeWidth=1;fillColor=none;align=left;verticalAlign=middle;spacingTop=-1;spacingLeft=3;spacingRight=3;rotatable=0;labelPosition=right;points=[];portConstraint=eastwest;strokeColor=inherit;" parent="TVm7w0jnragQNhiyeoIk-94" vertex="1">
          <mxGeometry y="120" width="160" height="8" as="geometry" />
        </mxCell>
        <mxCell id="TVm7w0jnragQNhiyeoIk-97" value="&lt;font style=&quot;font-size: 15px;&quot; face=&quot;Times New Roman&quot;&gt;+getId():int&lt;/font&gt;&lt;div&gt;&lt;font size=&quot;3&quot; face=&quot;agqPKLrvo61ltdrG8P1p&quot;&gt;+getDate():Date&lt;/font&gt;&lt;/div&gt;&lt;div&gt;&lt;font size=&quot;3&quot; face=&quot;agqPKLrvo61ltdrG8P1p&quot;&gt;+getType():String&lt;/font&gt;&lt;/div&gt;&lt;div&gt;&lt;font size=&quot;3&quot; face=&quot;agqPKLrvo61ltdrG8P1p&quot;&gt;+getDetails():String&lt;/font&gt;&lt;/div&gt;" style="text;strokeColor=none;fillColor=none;align=left;verticalAlign=top;spacingLeft=4;spacingRight=4;overflow=hidden;rotatable=0;points=[[0,0.5],[1,0.5]];portConstraint=eastwest;whiteSpace=wrap;html=1;" parent="TVm7w0jnragQNhiyeoIk-94" vertex="1">
          <mxGeometry y="128" width="160" height="92" as="geometry" />
        </mxCell>
        <mxCell id="TVm7w0jnragQNhiyeoIk-98" value="&lt;font style=&quot;font-size: 14px;&quot; face=&quot;Times New Roman&quot; color=&quot;#0066cc&quot;&gt;Class Demande&lt;/font&gt;" style="swimlane;fontStyle=1;align=center;verticalAlign=top;childLayout=stackLayout;horizontal=1;startSize=30;horizontalStack=0;resizeParent=1;resizeParentMax=0;resizeLast=0;collapsible=1;marginBottom=0;whiteSpace=wrap;html=1;" parent="1" vertex="1">
          <mxGeometry x="330" y="-4520" width="250" height="234" as="geometry" />
        </mxCell>
        <mxCell id="TVm7w0jnragQNhiyeoIk-99" value="&lt;font face=&quot;Times New Roman&quot; style=&quot;font-size: 14px;&quot;&gt;-id:int&lt;/font&gt;&lt;div&gt;&lt;font face=&quot;IR48HnzegV_tJdW06uRK&quot; size=&quot;3&quot;&gt;-type:String&lt;/font&gt;&lt;/div&gt;&lt;div&gt;&lt;font face=&quot;IR48HnzegV_tJdW06uRK&quot; size=&quot;3&quot;&gt;-details:String&lt;/font&gt;&lt;/div&gt;&lt;div&gt;&lt;br&gt;&lt;/div&gt;" style="text;strokeColor=none;fillColor=none;align=left;verticalAlign=top;spacingLeft=4;spacingRight=4;overflow=hidden;rotatable=0;points=[[0,0.5],[1,0.5]];portConstraint=eastwest;whiteSpace=wrap;html=1;" parent="TVm7w0jnragQNhiyeoIk-98" vertex="1">
          <mxGeometry y="30" width="250" height="64" as="geometry" />
        </mxCell>
        <mxCell id="TVm7w0jnragQNhiyeoIk-100" value="" style="line;strokeWidth=1;fillColor=none;align=left;verticalAlign=middle;spacingTop=-1;spacingLeft=3;spacingRight=3;rotatable=0;labelPosition=right;points=[];portConstraint=eastwest;strokeColor=inherit;" parent="TVm7w0jnragQNhiyeoIk-98" vertex="1">
          <mxGeometry y="94" width="250" height="8" as="geometry" />
        </mxCell>
        <mxCell id="TVm7w0jnragQNhiyeoIk-101" value="&lt;font style=&quot;font-size: 14px;&quot; face=&quot;Times New Roman&quot;&gt;+getId():int&lt;/font&gt;&lt;div&gt;&lt;font size=&quot;3&quot; face=&quot;KZgOzp4w_jWdcHOqf4HM&quot;&gt;+getType():String&lt;/font&gt;&lt;/div&gt;&lt;div&gt;&lt;font size=&quot;3&quot; face=&quot;KZgOzp4w_jWdcHOqf4HM&quot;&gt;+getDetails():String&lt;/font&gt;&lt;/div&gt;&lt;div&gt;&lt;font size=&quot;3&quot; face=&quot;KZgOzp4w_jWdcHOqf4HM&quot;&gt;-ajouterDetail(details:String):void&lt;/font&gt;&lt;/div&gt;&lt;div&gt;&lt;font size=&quot;3&quot; face=&quot;KZgOzp4w_jWdcHOqf4HM&quot;&gt;-modifierDetail(details:String):void&lt;/font&gt;&lt;/div&gt;&lt;div&gt;&lt;font size=&quot;3&quot; face=&quot;KZgOzp4w_jWdcHOqf4HM&quot;&gt;-supprimerDetail():void&lt;/font&gt;&lt;/div&gt;" style="text;strokeColor=none;fillColor=none;align=left;verticalAlign=top;spacingLeft=4;spacingRight=4;overflow=hidden;rotatable=0;points=[[0,0.5],[1,0.5]];portConstraint=eastwest;whiteSpace=wrap;html=1;" parent="TVm7w0jnragQNhiyeoIk-98" vertex="1">
          <mxGeometry y="102" width="250" height="132" as="geometry" />
        </mxCell>
        <mxCell id="TVm7w0jnragQNhiyeoIk-102" value="&lt;font color=&quot;#0066cc&quot; style=&quot;font-size: 14px;&quot; face=&quot;Times New Roman&quot;&gt;Class Preferences&lt;/font&gt;" style="swimlane;fontStyle=1;align=center;verticalAlign=top;childLayout=stackLayout;horizontal=1;startSize=35;horizontalStack=0;resizeParent=1;resizeParentMax=0;resizeLast=0;collapsible=1;marginBottom=0;whiteSpace=wrap;html=1;" parent="1" vertex="1">
          <mxGeometry x="670" y="-4440" width="240" height="249" as="geometry" />
        </mxCell>
        <mxCell id="TVm7w0jnragQNhiyeoIk-103" value="&lt;font style=&quot;font-size: 14px;&quot; face=&quot;Times New Roman&quot;&gt;-&lt;/font&gt;&lt;font style=&quot;font-size: 15px;&quot; face=&quot;Times New Roman&quot;&gt;id:int&lt;/font&gt;&lt;div&gt;&lt;font size=&quot;3&quot; face=&quot;mAVdwTrjOsegTdZHb4Ng&quot;&gt;-type:String&lt;/font&gt;&lt;/div&gt;&lt;div&gt;&lt;font size=&quot;3&quot; face=&quot;mAVdwTrjOsegTdZHb4Ng&quot;&gt;-details:String&lt;/font&gt;&lt;/div&gt;&lt;div&gt;&lt;br&gt;&lt;/div&gt;" style="text;strokeColor=none;fillColor=none;align=left;verticalAlign=top;spacingLeft=4;spacingRight=4;overflow=hidden;rotatable=0;points=[[0,0.5],[1,0.5]];portConstraint=eastwest;whiteSpace=wrap;html=1;" parent="TVm7w0jnragQNhiyeoIk-102" vertex="1">
          <mxGeometry y="35" width="240" height="64" as="geometry" />
        </mxCell>
        <mxCell id="TVm7w0jnragQNhiyeoIk-104" value="" style="line;strokeWidth=1;fillColor=none;align=left;verticalAlign=middle;spacingTop=-1;spacingLeft=3;spacingRight=3;rotatable=0;labelPosition=right;points=[];portConstraint=eastwest;strokeColor=inherit;" parent="TVm7w0jnragQNhiyeoIk-102" vertex="1">
          <mxGeometry y="99" width="240" height="8" as="geometry" />
        </mxCell>
        <mxCell id="TVm7w0jnragQNhiyeoIk-105" value="&lt;font style=&quot;font-size: 14px;&quot; face=&quot;Times New Roman&quot;&gt;+getId():int&lt;/font&gt;&lt;div&gt;&lt;font size=&quot;3&quot; face=&quot;tg8idkDuzC8Vh53FrxiU&quot;&gt;+getType():String&lt;/font&gt;&lt;/div&gt;&lt;div&gt;&lt;font size=&quot;3&quot; face=&quot;tg8idkDuzC8Vh53FrxiU&quot;&gt;+getDetails():String&lt;/font&gt;&lt;/div&gt;&lt;div&gt;&lt;font size=&quot;3&quot; face=&quot;tg8idkDuzC8Vh53FrxiU&quot;&gt;-ajouterDetail(details:String):void&lt;/font&gt;&lt;/div&gt;&lt;div&gt;&lt;font size=&quot;3&quot; face=&quot;tg8idkDuzC8Vh53FrxiU&quot;&gt;-modifierDetail(details:String):void&lt;/font&gt;&lt;/div&gt;&lt;div&gt;&lt;font size=&quot;3&quot; face=&quot;tg8idkDuzC8Vh53FrxiU&quot;&gt;-supprimerDetail():void&lt;/font&gt;&lt;/div&gt;" style="text;strokeColor=none;fillColor=none;align=left;verticalAlign=top;spacingLeft=4;spacingRight=4;overflow=hidden;rotatable=0;points=[[0,0.5],[1,0.5]];portConstraint=eastwest;whiteSpace=wrap;html=1;" parent="TVm7w0jnragQNhiyeoIk-102" vertex="1">
          <mxGeometry y="107" width="240" height="142" as="geometry" />
        </mxCell>
        <mxCell id="TVm7w0jnragQNhiyeoIk-106" value="&lt;p style=&quot;margin:0px;margin-top:4px;text-align:center;&quot;&gt;&lt;font color=&quot;#ff0000&quot; style=&quot;font-size: 14px;&quot; face=&quot;Times New Roman&quot;&gt;&lt;i style=&quot;&quot;&gt;&amp;lt;&amp;lt;Interface&amp;gt;&amp;gt;&lt;/i&gt;&lt;br&gt;&lt;b style=&quot;&quot;&gt;ITransactions&lt;/b&gt;&lt;/font&gt;&lt;/p&gt;&lt;p style=&quot;margin:0px;margin-left:4px;&quot;&gt;&lt;font size=&quot;3&quot; face=&quot;Times New Roman&quot;&gt;&lt;br&gt;&lt;/font&gt;&lt;/p&gt;&lt;hr size=&quot;1&quot; style=&quot;border-style:solid;&quot;&gt;&lt;p style=&quot;margin:0px;margin-left:4px;&quot;&gt;&lt;font size=&quot;3&quot; face=&quot;Times New Roman&quot;&gt;+ getId():int&lt;/font&gt;&lt;/p&gt;&lt;p style=&quot;margin:0px;margin-left:4px;&quot;&gt;&lt;font size=&quot;3&quot; face=&quot;Times New Roman&quot;&gt;+getBien():BienImmobilier&lt;/font&gt;&lt;/p&gt;&lt;p style=&quot;margin:0px;margin-left:4px;&quot;&gt;&lt;font size=&quot;3&quot; face=&quot;Times New Roman&quot;&gt;+getClient():Client&lt;/font&gt;&lt;/p&gt;&lt;p style=&quot;margin:0px;margin-left:4px;&quot;&gt;&lt;font size=&quot;3&quot; face=&quot;Times New Roman&quot;&gt;+getType():String&lt;/font&gt;&lt;/p&gt;&lt;p style=&quot;margin:0px;margin-left:4px;&quot;&gt;&lt;font size=&quot;3&quot; face=&quot;Times New Roman&quot;&gt;+getMontant():double&lt;/font&gt;&lt;/p&gt;&lt;p style=&quot;margin:0px;margin-left:4px;&quot;&gt;&lt;font size=&quot;3&quot; face=&quot;Times New Roman&quot;&gt;+getDate():Date&lt;/font&gt;&lt;/p&gt;&lt;p style=&quot;margin:0px;margin-left:4px;&quot;&gt;&lt;font size=&quot;3&quot; face=&quot;Times New Roman&quot;&gt;+getContrat():Contrat&lt;/font&gt;&lt;/p&gt;&lt;p style=&quot;margin:0px;margin-left:4px;&quot;&gt;&lt;font size=&quot;3&quot; face=&quot;Times New Roman&quot;&gt;+creerTransaction(bien:BienImmobilier,client:Client,&lt;/font&gt;&lt;/p&gt;&lt;p style=&quot;margin:0px;margin-left:4px;&quot;&gt;&lt;font size=&quot;3&quot; face=&quot;Times New Roman&quot;&gt;type:String,montant:double,date:Date):void&lt;/font&gt;&lt;/p&gt;&lt;p style=&quot;margin:0px;margin-left:4px;&quot;&gt;&lt;font size=&quot;3&quot; face=&quot;Times New Roman&quot;&gt;+suivreTransaction():void&lt;/font&gt;&lt;/p&gt;&lt;p style=&quot;margin:0px;margin-left:4px;&quot;&gt;&lt;font size=&quot;3&quot; face=&quot;Times New Roman&quot;&gt;+ajouterContrat(contrat:Contrat):void&lt;br&gt;&lt;/font&gt;&lt;br&gt;&lt;/p&gt;" style="verticalAlign=top;align=left;overflow=fill;html=1;whiteSpace=wrap;" parent="1" vertex="1">
          <mxGeometry x="-1510" y="-3710" width="400" height="300" as="geometry" />
        </mxCell>
        <mxCell id="TVm7w0jnragQNhiyeoIk-125" value="&lt;font style=&quot;font-size: 14px;&quot; color=&quot;#0066cc&quot; face=&quot;Times New Roman&quot;&gt;Class Transaction&lt;/font&gt;" style="swimlane;fontStyle=1;align=center;verticalAlign=top;childLayout=stackLayout;horizontal=1;startSize=26;horizontalStack=0;resizeParent=1;resizeParentMax=0;resizeLast=0;collapsible=1;marginBottom=0;whiteSpace=wrap;html=1;" parent="1" vertex="1">
          <mxGeometry x="-980" y="-3730" width="280" height="390" as="geometry" />
        </mxCell>
        <mxCell id="TVm7w0jnragQNhiyeoIk-126" value="&lt;span style=&quot;font-size: 14px; white-space-collapse: preserve; background-color: rgb(213, 232, 212);&quot;&gt;&lt;font face=&quot;Times New Roman&quot;&gt;- id: int&lt;br&gt;- bien: BienImmobilier&lt;br&gt;- client: Client&lt;br&gt;- type: String&lt;br&gt;- montant: double&lt;br&gt;- date: Date&lt;br&gt;- contrat: Contrat&lt;/font&gt;&lt;/span&gt;" style="text;strokeColor=none;fillColor=none;align=left;verticalAlign=top;spacingLeft=4;spacingRight=4;overflow=hidden;rotatable=0;points=[[0,0.5],[1,0.5]];portConstraint=eastwest;whiteSpace=wrap;html=1;" parent="TVm7w0jnragQNhiyeoIk-125" vertex="1">
          <mxGeometry y="26" width="280" height="134" as="geometry" />
        </mxCell>
        <mxCell id="TVm7w0jnragQNhiyeoIk-127" value="" style="line;strokeWidth=1;fillColor=none;align=left;verticalAlign=middle;spacingTop=-1;spacingLeft=3;spacingRight=3;rotatable=0;labelPosition=right;points=[];portConstraint=eastwest;strokeColor=inherit;" parent="TVm7w0jnragQNhiyeoIk-125" vertex="1">
          <mxGeometry y="160" width="280" height="8" as="geometry" />
        </mxCell>
        <mxCell id="TVm7w0jnragQNhiyeoIk-128" value="&lt;span style=&quot;white-space-collapse: preserve; background-color: rgb(213, 232, 212);&quot;&gt;&lt;font style=&quot;font-size: 14px;&quot; face=&quot;Times New Roman&quot;&gt;+ getId(): int&lt;br&gt;+ getBien(): BienImmobilier&lt;br&gt;+ getClient(): Client&lt;br&gt;+ getType(): String&lt;br&gt;+ getMontant(): doubl&lt;/font&gt;&lt;/span&gt;&lt;div&gt;&lt;span style=&quot;white-space-collapse: preserve; background-color: rgb(213, 232, 212);&quot;&gt;&lt;font style=&quot;font-size: 14px;&quot; face=&quot;Times New Roman&quot;&gt;+ getDate(): Date&lt;br&gt;+ getContrat(): Contrat&lt;br&gt;+ creerTransaction(bien: BienImmobilier, client: Client, type: String, montant: double, date: Date): void&lt;br&gt;+ suivreTransaction(): void&lt;/font&gt;&lt;/span&gt;&lt;/div&gt;&lt;div&gt;&lt;span style=&quot;white-space-collapse: preserve; background-color: rgb(213, 232, 212);&quot;&gt;&lt;font style=&quot;font-size: 14px;&quot; face=&quot;Times New Roman&quot;&gt;+ ajouterContrat(contrat: Contrat): void&lt;/font&gt;&lt;/span&gt;&lt;/div&gt;" style="text;strokeColor=none;fillColor=none;align=left;verticalAlign=top;spacingLeft=4;spacingRight=4;overflow=hidden;rotatable=0;points=[[0,0.5],[1,0.5]];portConstraint=eastwest;whiteSpace=wrap;html=1;" parent="TVm7w0jnragQNhiyeoIk-125" vertex="1">
          <mxGeometry y="168" width="280" height="222" as="geometry" />
        </mxCell>
        <mxCell id="TVm7w0jnragQNhiyeoIk-130" value="&lt;font color=&quot;#0066cc&quot; face=&quot;Times New Roman&quot; style=&quot;font-size: 14px;&quot;&gt;Class Contrat&lt;/font&gt;" style="swimlane;fontStyle=1;align=center;verticalAlign=top;childLayout=stackLayout;horizontal=1;startSize=30;horizontalStack=0;resizeParent=1;resizeParentMax=0;resizeLast=0;collapsible=1;marginBottom=0;whiteSpace=wrap;html=1;" parent="1" vertex="1">
          <mxGeometry x="-1530" y="-3330" width="320" height="210" as="geometry" />
        </mxCell>
        <mxCell id="TVm7w0jnragQNhiyeoIk-131" value="&lt;font face=&quot;Times New Roman&quot; style=&quot;font-size: 14px;&quot;&gt;-&lt;/font&gt;&lt;font face=&quot;Times New Roman&quot; style=&quot;font-size: 15px;&quot;&gt;id:int&lt;/font&gt;&lt;div&gt;&lt;font face=&quot;N5N8dzPVUm3vKv6hlSy_&quot; size=&quot;3&quot;&gt;-type:String&lt;/font&gt;&lt;/div&gt;&lt;div&gt;&lt;font face=&quot;N5N8dzPVUm3vKv6hlSy_&quot; size=&quot;3&quot;&gt;-details:String&lt;/font&gt;&lt;/div&gt;&lt;div&gt;&lt;br&gt;&lt;/div&gt;" style="text;strokeColor=none;fillColor=none;align=left;verticalAlign=top;spacingLeft=4;spacingRight=4;overflow=hidden;rotatable=0;points=[[0,0.5],[1,0.5]];portConstraint=eastwest;whiteSpace=wrap;html=1;" parent="TVm7w0jnragQNhiyeoIk-130" vertex="1">
          <mxGeometry y="30" width="320" height="64" as="geometry" />
        </mxCell>
        <mxCell id="TVm7w0jnragQNhiyeoIk-132" value="" style="line;strokeWidth=1;fillColor=none;align=left;verticalAlign=middle;spacingTop=-1;spacingLeft=3;spacingRight=3;rotatable=0;labelPosition=right;points=[];portConstraint=eastwest;strokeColor=inherit;" parent="TVm7w0jnragQNhiyeoIk-130" vertex="1">
          <mxGeometry y="94" width="320" height="8" as="geometry" />
        </mxCell>
        <mxCell id="TVm7w0jnragQNhiyeoIk-133" value="&lt;font face=&quot;Times New Roman&quot; style=&quot;font-size: 14px;&quot;&gt;+getId():int&lt;/font&gt;&lt;div&gt;&lt;font face=&quot;J48a804Fgi05Vyn8S4ag&quot; size=&quot;3&quot;&gt;+getType():String&lt;/font&gt;&lt;/div&gt;&lt;div&gt;&lt;font face=&quot;J48a804Fgi05Vyn8S4ag&quot; size=&quot;3&quot;&gt;+getDetails():String&lt;/font&gt;&lt;/div&gt;&lt;div&gt;&lt;font face=&quot;J48a804Fgi05Vyn8S4ag&quot; size=&quot;3&quot;&gt;+genererContrat(type:String,details:String):void&lt;/font&gt;&lt;/div&gt;&lt;div&gt;&lt;font face=&quot;J48a804Fgi05Vyn8S4ag&quot; size=&quot;3&quot;&gt;+modifierContrat(details:String):void&lt;/font&gt;&lt;/div&gt;" style="text;strokeColor=none;fillColor=none;align=left;verticalAlign=top;spacingLeft=4;spacingRight=4;overflow=hidden;rotatable=0;points=[[0,0.5],[1,0.5]];portConstraint=eastwest;whiteSpace=wrap;html=1;" parent="TVm7w0jnragQNhiyeoIk-130" vertex="1">
          <mxGeometry y="102" width="320" height="108" as="geometry" />
        </mxCell>
        <mxCell id="TVm7w0jnragQNhiyeoIk-134" value="&lt;font color=&quot;#0066cc&quot; face=&quot;Times New Roman&quot; style=&quot;font-size: 14px;&quot;&gt;Class Paiement&lt;/font&gt;&amp;nbsp;" style="swimlane;fontStyle=1;align=center;verticalAlign=top;childLayout=stackLayout;horizontal=1;startSize=30;horizontalStack=0;resizeParent=1;resizeParentMax=0;resizeLast=0;collapsible=1;marginBottom=0;whiteSpace=wrap;html=1;" parent="1" vertex="1">
          <mxGeometry x="-900" y="-3280" width="290" height="270" as="geometry" />
        </mxCell>
        <mxCell id="TVm7w0jnragQNhiyeoIk-135" value="&lt;font style=&quot;font-size: 14px;&quot; face=&quot;Times New Roman&quot;&gt;-id:int&lt;/font&gt;&lt;div&gt;&lt;font size=&quot;3&quot; face=&quot;GYHVMMKpK0SOcKDAPM2q&quot;&gt;-transaction:Transaction&lt;/font&gt;&lt;/div&gt;&lt;div&gt;&lt;font size=&quot;3&quot; face=&quot;GYHVMMKpK0SOcKDAPM2q&quot;&gt;-montant:double&lt;/font&gt;&lt;/div&gt;&lt;div&gt;&lt;font size=&quot;3&quot; face=&quot;GYHVMMKpK0SOcKDAPM2q&quot;&gt;-date:Date&lt;/font&gt;&lt;/div&gt;" style="text;strokeColor=none;fillColor=none;align=left;verticalAlign=top;spacingLeft=4;spacingRight=4;overflow=hidden;rotatable=0;points=[[0,0.5],[1,0.5]];portConstraint=eastwest;whiteSpace=wrap;html=1;" parent="TVm7w0jnragQNhiyeoIk-134" vertex="1">
          <mxGeometry y="30" width="290" height="90" as="geometry" />
        </mxCell>
        <mxCell id="TVm7w0jnragQNhiyeoIk-136" value="" style="line;strokeWidth=1;fillColor=none;align=left;verticalAlign=middle;spacingTop=-1;spacingLeft=3;spacingRight=3;rotatable=0;labelPosition=right;points=[];portConstraint=eastwest;strokeColor=inherit;" parent="TVm7w0jnragQNhiyeoIk-134" vertex="1">
          <mxGeometry y="120" width="290" height="8" as="geometry" />
        </mxCell>
        <mxCell id="TVm7w0jnragQNhiyeoIk-137" value="&lt;span style=&quot;background-color: rgb(213, 232, 212);&quot;&gt;&lt;font style=&quot;font-size: 14px;&quot; face=&quot;Times New Roman&quot;&gt;&lt;span style=&quot;white-space-collapse: preserve;&quot;&gt;+ getId(): int&lt;br&gt;+ getTransaction(): Transaction&lt;/span&gt;&lt;/font&gt;&lt;/span&gt;&lt;div&gt;&lt;span style=&quot;background-color: rgb(213, 232, 212);&quot;&gt;&lt;font style=&quot;font-size: 14px;&quot; face=&quot;Times New Roman&quot;&gt;&lt;span style=&quot;white-space-collapse: preserve;&quot;&gt;+ getMontant(): double&lt;br&gt;+ getDate(): Date&lt;br&gt;+ enregistrerPaiement(&lt;/span&gt;&lt;wbr style=&quot;white-space-collapse: preserve;&quot;&gt;&lt;span style=&quot;white-space-collapse: preserve;&quot;&gt;transaction: Transaction, montant: double, date: Date): void&lt;br&gt;+ annulerPaiement(): void&lt;/span&gt;&lt;/font&gt;&lt;/span&gt;&lt;/div&gt;" style="text;strokeColor=none;fillColor=none;align=left;verticalAlign=top;spacingLeft=4;spacingRight=4;overflow=hidden;rotatable=0;points=[[0,0.5],[1,0.5]];portConstraint=eastwest;whiteSpace=wrap;html=1;" parent="TVm7w0jnragQNhiyeoIk-134" vertex="1">
          <mxGeometry y="128" width="290" height="142" as="geometry" />
        </mxCell>
        <mxCell id="TVm7w0jnragQNhiyeoIk-138" value="&lt;font color=&quot;#0066cc&quot; face=&quot;Times New Roman&quot; style=&quot;font-size: 14px;&quot;&gt;Class Echeance&lt;/font&gt;" style="swimlane;fontStyle=1;align=center;verticalAlign=top;childLayout=stackLayout;horizontal=1;startSize=30;horizontalStack=0;resizeParent=1;resizeParentMax=0;resizeLast=0;collapsible=1;marginBottom=0;whiteSpace=wrap;html=1;" parent="1" vertex="1">
          <mxGeometry x="-1330" y="-3020" width="300" height="266" as="geometry" />
        </mxCell>
        <mxCell id="TVm7w0jnragQNhiyeoIk-139" value="&lt;span style=&quot;font-size: 14px; white-space-collapse: preserve; background-color: rgb(213, 232, 212);&quot;&gt;&lt;font style=&quot;&quot; face=&quot;Times New Roman&quot;&gt;- id: int&lt;br&gt;- transaction: Transaction&lt;br&gt;- montant: double&lt;br&gt;- dateEcheance: Date&lt;/font&gt;&lt;/span&gt;" style="text;strokeColor=none;fillColor=none;align=left;verticalAlign=top;spacingLeft=4;spacingRight=4;overflow=hidden;rotatable=0;points=[[0,0.5],[1,0.5]];portConstraint=eastwest;whiteSpace=wrap;html=1;" parent="TVm7w0jnragQNhiyeoIk-138" vertex="1">
          <mxGeometry y="30" width="300" height="90" as="geometry" />
        </mxCell>
        <mxCell id="TVm7w0jnragQNhiyeoIk-140" value="" style="line;strokeWidth=1;fillColor=none;align=left;verticalAlign=middle;spacingTop=-1;spacingLeft=3;spacingRight=3;rotatable=0;labelPosition=right;points=[];portConstraint=eastwest;strokeColor=inherit;" parent="TVm7w0jnragQNhiyeoIk-138" vertex="1">
          <mxGeometry y="120" width="300" height="8" as="geometry" />
        </mxCell>
        <mxCell id="TVm7w0jnragQNhiyeoIk-141" value="&lt;font style=&quot;font-size: 14px; background-color: rgb(213, 232, 212);&quot; face=&quot;Times New Roman&quot;&gt;&lt;span style=&quot;white-space-collapse: preserve;&quot;&gt;+ getId(): int&lt;br&gt;+ getTransaction(): Transaction&lt;br&gt;+ getMontant(): doubl&lt;/span&gt;&lt;/font&gt;&lt;div&gt;&lt;font style=&quot;font-size: 14px; background-color: rgb(213, 232, 212);&quot; face=&quot;Times New Roman&quot;&gt;&lt;span style=&quot;white-space-collapse: preserve;&quot;&gt;+ getDateEcheance(): Date&lt;br&gt;+ enregistrerEcheance(&lt;/span&gt;&lt;wbr style=&quot;white-space-collapse: preserve;&quot;&gt;&lt;span style=&quot;white-space-collapse: preserve;&quot;&gt;transaction: Transaction, montant: double, dateEcheance: Date): void&lt;br&gt;+ modifierEcheance(dateEcheance: Date): void&lt;/span&gt;&lt;/font&gt;&lt;/div&gt;" style="text;strokeColor=none;fillColor=none;align=left;verticalAlign=top;spacingLeft=4;spacingRight=4;overflow=hidden;rotatable=0;points=[[0,0.5],[1,0.5]];portConstraint=eastwest;whiteSpace=wrap;html=1;" parent="TVm7w0jnragQNhiyeoIk-138" vertex="1">
          <mxGeometry y="128" width="300" height="138" as="geometry" />
        </mxCell>
        <mxCell id="TVm7w0jnragQNhiyeoIk-143" value="&lt;font color=&quot;#0066cc&quot; style=&quot;font-size: 14px;&quot; face=&quot;Times New Roman&quot;&gt;Class RendezVous&lt;/font&gt;" style="swimlane;fontStyle=1;align=center;verticalAlign=top;childLayout=stackLayout;horizontal=1;startSize=30;horizontalStack=0;resizeParent=1;resizeParentMax=0;resizeLast=0;collapsible=1;marginBottom=0;whiteSpace=wrap;html=1;" parent="1" vertex="1">
          <mxGeometry x="610" y="-3200" width="420" height="384" as="geometry" />
        </mxCell>
        <mxCell id="TVm7w0jnragQNhiyeoIk-144" value="&lt;span style=&quot;white-space-collapse: preserve; background-color: rgb(255, 242, 204);&quot;&gt;&lt;font style=&quot;font-size: 14px;&quot; face=&quot;Times New Roman&quot;&gt;-id: int&lt;/font&gt;&lt;/span&gt;&lt;div&gt;&lt;span style=&quot;white-space-collapse: preserve; background-color: rgb(255, 242, 204);&quot;&gt;&lt;font style=&quot;font-size: 14px;&quot; face=&quot;Times New Roman&quot;&gt;- bien: BienImmobilier&lt;/font&gt;&lt;/span&gt;&lt;div&gt;&lt;span style=&quot;white-space-collapse: preserve; background-color: rgb(255, 242, 204);&quot;&gt;&lt;font style=&quot;font-size: 14px;&quot; face=&quot;Times New Roman&quot;&gt;- date: Date&lt;br&gt;- client: Client&lt;br&gt;- agent: AgentImmobilier&lt;/font&gt;&lt;/span&gt;&lt;/div&gt;&lt;/div&gt;" style="text;strokeColor=none;fillColor=none;align=left;verticalAlign=top;spacingLeft=4;spacingRight=4;overflow=hidden;rotatable=0;points=[[0,0.5],[1,0.5]];portConstraint=eastwest;whiteSpace=wrap;html=1;" parent="TVm7w0jnragQNhiyeoIk-143" vertex="1">
          <mxGeometry y="30" width="420" height="104" as="geometry" />
        </mxCell>
        <mxCell id="TVm7w0jnragQNhiyeoIk-145" value="" style="line;strokeWidth=1;fillColor=none;align=left;verticalAlign=middle;spacingTop=-1;spacingLeft=3;spacingRight=3;rotatable=0;labelPosition=right;points=[];portConstraint=eastwest;strokeColor=inherit;" parent="TVm7w0jnragQNhiyeoIk-143" vertex="1">
          <mxGeometry y="134" width="420" height="8" as="geometry" />
        </mxCell>
        <mxCell id="TVm7w0jnragQNhiyeoIk-146" value="&lt;font style=&quot;font-size: 14px; background-color: rgb(255, 242, 204);&quot; face=&quot;Times New Roman&quot;&gt;&lt;span style=&quot;white-space-collapse: preserve;&quot;&gt;+ getId(): int&lt;br&gt;+ getBien(): BienImmobilier&lt;br&gt;+ getDate(): Date&lt;br&gt;+ getClient(): Client&lt;/span&gt;&lt;/font&gt;&lt;div&gt;&lt;font style=&quot;font-size: 14px; background-color: rgb(255, 242, 204);&quot; face=&quot;Times New Roman&quot;&gt;&lt;span style=&quot;white-space-collapse: preserve;&quot;&gt;+ getAgent(): AgentImmobilier&lt;br&gt;+ planifierRendezVous(bien: BienImmobilier, date: Date, client: Client, agent: AgentImmobilier): void&lt;br&gt;+ annulerRendezVous(): void&lt;br&gt;+ modifierDate(date: Date): void&lt;br&gt;+ reaffecterAgent(agent: AgentImmobilier): void&lt;/span&gt;&lt;/font&gt;&lt;/div&gt;&lt;div&gt;&lt;font style=&quot;font-size: 14px; background-color: rgb(255, 242, 204);&quot; face=&quot;Times New Roman&quot;&gt;&lt;span style=&quot;white-space-collapse: preserve;&quot;&gt;+ deplacerRendezVous(&lt;/span&gt;&lt;wbr style=&quot;white-space-collapse: preserve;&quot;&gt;&lt;span style=&quot;white-space-collapse: preserve;&quot;&gt;nouvelleDate: Date): void&lt;br&gt;+ notifierClient(message: String): void&lt;br&gt;+ notifierAgent(message: String): void&lt;/span&gt;&lt;/font&gt;&lt;/div&gt;" style="text;strokeColor=none;fillColor=none;align=left;verticalAlign=top;spacingLeft=4;spacingRight=4;overflow=hidden;rotatable=0;points=[[0,0.5],[1,0.5]];portConstraint=eastwest;whiteSpace=wrap;html=1;" parent="TVm7w0jnragQNhiyeoIk-143" vertex="1">
          <mxGeometry y="142" width="420" height="242" as="geometry" />
        </mxCell>
        <mxCell id="TVm7w0jnragQNhiyeoIk-147" value="&lt;p style=&quot;margin:0px;margin-top:4px;text-align:center;&quot;&gt;&lt;span style=&quot;background-color: rgb(255, 255, 255);&quot;&gt;&lt;font color=&quot;#ff0000&quot; face=&quot;Times New Roman&quot; style=&quot;font-size: 14px;&quot;&gt;&lt;i&gt;&amp;lt;&amp;lt;Interface&amp;gt;&amp;gt;&lt;/i&gt;&lt;br&gt;&lt;b&gt;IRendezVous&lt;/b&gt;&lt;/font&gt;&lt;/span&gt;&lt;/p&gt;&lt;hr size=&quot;1&quot; style=&quot;border-style:solid;&quot;&gt;&lt;p style=&quot;margin:0px;margin-left:4px;&quot;&gt;&lt;span style=&quot;background-color: rgb(255, 255, 255);&quot;&gt;&lt;font face=&quot;w5MrqYSOy9yAQSf6MPaB&quot; size=&quot;3&quot;&gt;&lt;span style=&quot;white-space-collapse: preserve;&quot;&gt;+ getId(): int&lt;/span&gt;&lt;/font&gt;&lt;/span&gt;&lt;/p&gt;&lt;p style=&quot;margin:0px;margin-left:4px;&quot;&gt;&lt;span style=&quot;background-color: rgb(255, 255, 255);&quot;&gt;&lt;font face=&quot;w5MrqYSOy9yAQSf6MPaB&quot; size=&quot;3&quot;&gt;&lt;span style=&quot;white-space-collapse: preserve;&quot;&gt;+ getBien(): BienImmobilier&lt;br&gt;+ getDate(): Date&lt;br&gt;+ getClient(): Client&lt;br&gt;+ getAgent(): AgentImmobilier&lt;br&gt;+ planifierRendezVous(bien: BienImmobilier, date: Date, client: Client, agent: AgentImmobilier): void&lt;br&gt;+ annulerRendezVous(): void&lt;br&gt;+ modifierDate(date: Date): void&lt;/span&gt;&lt;/font&gt;&lt;/span&gt;&lt;/p&gt;&lt;p style=&quot;margin:0px;margin-left:4px;&quot;&gt;&lt;span style=&quot;background-color: rgb(255, 255, 255);&quot;&gt;&lt;font face=&quot;w5MrqYSOy9yAQSf6MPaB&quot; size=&quot;3&quot;&gt;&lt;span style=&quot;white-space-collapse: preserve;&quot;&gt;+ reaffecterAgent(agent: AgentImmobilier): void&lt;br&gt;+ deplacerRendezVous(&lt;/span&gt;&lt;wbr style=&quot;white-space-collapse: preserve;&quot;&gt;&lt;span style=&quot;white-space-collapse: preserve;&quot;&gt;nouvelleDate: Date): void&lt;br&gt;+ notifierClient(message: String): void&lt;br&gt;+ notifierAgent(message: String): void&lt;/span&gt;&lt;/font&gt;&lt;/span&gt;&lt;br&gt;&lt;/p&gt;" style="verticalAlign=top;align=left;overflow=fill;html=1;whiteSpace=wrap;" parent="1" vertex="1">
          <mxGeometry x="155" y="-3650" width="395" height="330" as="geometry" />
        </mxCell>
        <mxCell id="TVm7w0jnragQNhiyeoIk-148" style="edgeStyle=orthogonalEdgeStyle;rounded=0;orthogonalLoop=1;jettySize=auto;html=1;entryX=-0.008;entryY=0.011;entryDx=0;entryDy=0;entryPerimeter=0;curved=1;" parent="1" source="TVm7w0jnragQNhiyeoIk-68" target="TVm7w0jnragQNhiyeoIk-72" edge="1">
          <mxGeometry relative="1" as="geometry" />
        </mxCell>
        <mxCell id="TVm7w0jnragQNhiyeoIk-149" value="&lt;b&gt;&lt;font style=&quot;font-size: 18px;&quot; face=&quot;Times New Roman&quot;&gt;Implementation&lt;/font&gt;&lt;/b&gt;" style="text;html=1;align=center;verticalAlign=middle;whiteSpace=wrap;rounded=0;rotation=-10;" parent="1" vertex="1">
          <mxGeometry x="-1160" y="-4820" width="60" height="30" as="geometry" />
        </mxCell>
        <mxCell id="TVm7w0jnragQNhiyeoIk-152" style="edgeStyle=orthogonalEdgeStyle;rounded=0;orthogonalLoop=1;jettySize=auto;html=1;entryX=-0.012;entryY=0.716;entryDx=0;entryDy=0;entryPerimeter=0;curved=1;" parent="1" source="TVm7w0jnragQNhiyeoIk-106" target="TVm7w0jnragQNhiyeoIk-126" edge="1">
          <mxGeometry relative="1" as="geometry" />
        </mxCell>
        <mxCell id="TVm7w0jnragQNhiyeoIk-153" value="&lt;font face=&quot;Times New Roman&quot; style=&quot;font-size: 14px;&quot;&gt;&lt;b&gt;Implemetation&lt;/b&gt;&lt;/font&gt;" style="text;html=1;align=center;verticalAlign=middle;whiteSpace=wrap;rounded=0;rotation=-30;" parent="1" vertex="1">
          <mxGeometry x="-1090" y="-3620" width="60" height="30" as="geometry" />
        </mxCell>
        <mxCell id="TVm7w0jnragQNhiyeoIk-154" style="edgeStyle=orthogonalEdgeStyle;rounded=0;orthogonalLoop=1;jettySize=auto;html=1;entryX=0.003;entryY=0.25;entryDx=0;entryDy=0;entryPerimeter=0;curved=1;" parent="1" source="TVm7w0jnragQNhiyeoIk-147" target="TVm7w0jnragQNhiyeoIk-146" edge="1">
          <mxGeometry relative="1" as="geometry" />
        </mxCell>
        <mxCell id="TVm7w0jnragQNhiyeoIk-155" value="&lt;font style=&quot;font-size: 18px;&quot; face=&quot;Times New Roman&quot;&gt;&lt;b style=&quot;&quot;&gt;Implementation&lt;/b&gt;&lt;/font&gt;" style="text;html=1;align=center;verticalAlign=middle;whiteSpace=wrap;rounded=0;rotation=50;" parent="1" vertex="1">
          <mxGeometry x="430" y="-3110" width="60" height="30" as="geometry" />
        </mxCell>
        <mxCell id="TVm7w0jnragQNhiyeoIk-157" style="edgeStyle=orthogonalEdgeStyle;rounded=0;orthogonalLoop=1;jettySize=auto;html=1;entryX=0.01;entryY=0.712;entryDx=0;entryDy=0;entryPerimeter=0;curved=1;" parent="1" source="TVm7w0jnragQNhiyeoIk-89" target="TVm7w0jnragQNhiyeoIk-91" edge="1">
          <mxGeometry relative="1" as="geometry" />
        </mxCell>
        <mxCell id="TVm7w0jnragQNhiyeoIk-158" value="&lt;font face=&quot;Times New Roman&quot; style=&quot;font-size: 14px;&quot;&gt;&lt;b&gt;Implementation&lt;/b&gt;&lt;/font&gt;" style="text;html=1;align=center;verticalAlign=middle;whiteSpace=wrap;rounded=0;rotation=-30;" parent="1" vertex="1">
          <mxGeometry x="460" y="-4860" width="60" height="30" as="geometry" />
        </mxCell>
        <mxCell id="TVm7w0jnragQNhiyeoIk-164" value="&lt;font face=&quot;Times New Roman&quot;&gt;&lt;span style=&quot;font-size: 18px;&quot;&gt;&lt;b&gt;Association&lt;/b&gt;&lt;/span&gt;&lt;/font&gt;" style="text;html=1;align=center;verticalAlign=middle;whiteSpace=wrap;rounded=0;rotation=-50;" parent="1" vertex="1">
          <mxGeometry x="-1235" y="-4510" width="110" height="30" as="geometry" />
        </mxCell>
        <mxCell id="TVm7w0jnragQNhiyeoIk-166" style="edgeStyle=orthogonalEdgeStyle;rounded=0;orthogonalLoop=1;jettySize=auto;html=1;" parent="1" source="TVm7w0jnragQNhiyeoIk-125" target="TVm7w0jnragQNhiyeoIk-70" edge="1">
          <mxGeometry relative="1" as="geometry">
            <Array as="points">
              <mxPoint x="-840" y="-4150" />
              <mxPoint x="-300" y="-4150" />
              <mxPoint x="-300" y="-4883" />
            </Array>
          </mxGeometry>
        </mxCell>
        <mxCell id="TVm7w0jnragQNhiyeoIk-167" value="&lt;font face=&quot;Times New Roman&quot; style=&quot;font-size: 18px;&quot;&gt;&lt;b&gt;Association&lt;/b&gt;&lt;/font&gt;" style="text;html=1;align=center;verticalAlign=middle;whiteSpace=wrap;rounded=0;rotation=0;" parent="1" vertex="1">
          <mxGeometry x="-680" y="-4880" width="300" height="70" as="geometry" />
        </mxCell>
        <mxCell id="TVm7w0jnragQNhiyeoIk-170" style="edgeStyle=orthogonalEdgeStyle;rounded=0;orthogonalLoop=1;jettySize=auto;html=1;entryX=0.07;entryY=0.994;entryDx=0;entryDy=0;entryPerimeter=0;" parent="1" source="TVm7w0jnragQNhiyeoIk-125" target="TVm7w0jnragQNhiyeoIk-93" edge="1">
          <mxGeometry relative="1" as="geometry">
            <Array as="points">
              <mxPoint x="-640" y="-3535" />
              <mxPoint x="-640" y="-3940" />
              <mxPoint x="618" y="-3940" />
            </Array>
          </mxGeometry>
        </mxCell>
        <mxCell id="TVm7w0jnragQNhiyeoIk-171" value="&lt;font face=&quot;Times New Roman&quot; style=&quot;font-size: 18px;&quot;&gt;&lt;b&gt;Association&lt;/b&gt;&lt;/font&gt;" style="text;html=1;align=center;verticalAlign=middle;whiteSpace=wrap;rounded=0;" parent="1" vertex="1">
          <mxGeometry x="-210" y="-3990" width="270" height="30" as="geometry" />
        </mxCell>
        <mxCell id="TVm7w0jnragQNhiyeoIk-173" style="edgeStyle=orthogonalEdgeStyle;rounded=0;orthogonalLoop=1;jettySize=auto;html=1;entryX=1.014;entryY=0.931;entryDx=0;entryDy=0;entryPerimeter=0;curved=1;" parent="1" source="TVm7w0jnragQNhiyeoIk-128" target="TVm7w0jnragQNhiyeoIk-131" edge="1">
          <mxGeometry relative="1" as="geometry">
            <Array as="points">
              <mxPoint x="-1095" y="-3400" />
              <mxPoint x="-1095" y="-3240" />
            </Array>
          </mxGeometry>
        </mxCell>
        <mxCell id="TVm7w0jnragQNhiyeoIk-174" value="&lt;font style=&quot;font-size: 18px;&quot; face=&quot;Times New Roman&quot;&gt;&lt;b&gt;Association&lt;/b&gt;&lt;/font&gt;" style="text;html=1;align=center;verticalAlign=middle;whiteSpace=wrap;rounded=0;rotation=-50;" parent="1" vertex="1">
          <mxGeometry x="-1197.5" y="-3320" width="110" height="30" as="geometry" />
        </mxCell>
        <mxCell id="TVm7w0jnragQNhiyeoIk-175" style="edgeStyle=orthogonalEdgeStyle;rounded=0;orthogonalLoop=1;jettySize=auto;html=1;" parent="1" source="TVm7w0jnragQNhiyeoIk-135" target="TVm7w0jnragQNhiyeoIk-128" edge="1">
          <mxGeometry relative="1" as="geometry">
            <Array as="points">
              <mxPoint x="-570" y="-3205" />
              <mxPoint x="-570" y="-3451" />
            </Array>
          </mxGeometry>
        </mxCell>
        <mxCell id="TVm7w0jnragQNhiyeoIk-176" value="&lt;font face=&quot;Times New Roman&quot;&gt;&lt;span style=&quot;font-size: 18px;&quot;&gt;&lt;b&gt;Association&lt;/b&gt;&lt;/span&gt;&lt;/font&gt;" style="text;html=1;align=center;verticalAlign=middle;whiteSpace=wrap;rounded=0;rotation=90;" parent="1" vertex="1">
          <mxGeometry x="-640" y="-3370" width="180" height="30" as="geometry" />
        </mxCell>
        <mxCell id="TVm7w0jnragQNhiyeoIk-177" style="edgeStyle=orthogonalEdgeStyle;rounded=0;orthogonalLoop=1;jettySize=auto;html=1;" parent="1" source="TVm7w0jnragQNhiyeoIk-139" target="TVm7w0jnragQNhiyeoIk-128" edge="1">
          <mxGeometry relative="1" as="geometry">
            <Array as="points">
              <mxPoint x="-960" y="-2945" />
            </Array>
          </mxGeometry>
        </mxCell>
        <mxCell id="TVm7w0jnragQNhiyeoIk-178" value="&lt;font style=&quot;font-size: 18px;&quot; face=&quot;Times New Roman&quot;&gt;&lt;b&gt;Association&lt;/b&gt;&lt;/font&gt;" style="text;html=1;align=center;verticalAlign=middle;whiteSpace=wrap;rounded=0;rotation=-90;" parent="1" vertex="1">
          <mxGeometry x="-1010" y="-3110" width="60" height="30" as="geometry" />
        </mxCell>
        <mxCell id="TVm7w0jnragQNhiyeoIk-179" style="edgeStyle=orthogonalEdgeStyle;rounded=0;orthogonalLoop=1;jettySize=auto;html=1;entryX=1.004;entryY=0.614;entryDx=0;entryDy=0;entryPerimeter=0;" parent="1" edge="1">
          <mxGeometry relative="1" as="geometry">
            <mxPoint x="610" y="-2900" as="sourcePoint" />
            <mxPoint x="-729.9999999999998" y="-4631.692" as="targetPoint" />
            <Array as="points">
              <mxPoint x="609" y="-2900" />
              <mxPoint x="-110" y="-2900" />
              <mxPoint x="-110" y="-4632" />
            </Array>
          </mxGeometry>
        </mxCell>
        <mxCell id="TVm7w0jnragQNhiyeoIk-180" value="&lt;font face=&quot;Times New Roman&quot; style=&quot;font-size: 18px;&quot;&gt;&lt;b&gt;Association&lt;/b&gt;&lt;/font&gt;" style="text;html=1;align=center;verticalAlign=middle;whiteSpace=wrap;rounded=0;rotation=-90;" parent="1" vertex="1">
          <mxGeometry x="-280" y="-3450" width="280" height="30" as="geometry" />
        </mxCell>
        <mxCell id="TVm7w0jnragQNhiyeoIk-181" style="edgeStyle=orthogonalEdgeStyle;rounded=0;orthogonalLoop=1;jettySize=auto;html=1;entryX=1.016;entryY=0.605;entryDx=0;entryDy=0;entryPerimeter=0;curved=1;" parent="1" source="TVm7w0jnragQNhiyeoIk-72" target="TVm7w0jnragQNhiyeoIk-48" edge="1">
          <mxGeometry relative="1" as="geometry">
            <Array as="points">
              <mxPoint x="-1145" y="-4600" />
              <mxPoint x="-1145" y="-4413" />
            </Array>
          </mxGeometry>
        </mxCell>
        <mxCell id="TVm7w0jnragQNhiyeoIk-182" style="edgeStyle=orthogonalEdgeStyle;rounded=0;orthogonalLoop=1;jettySize=auto;html=1;entryX=1;entryY=0.5;entryDx=0;entryDy=0;" parent="1" source="TVm7w0jnragQNhiyeoIk-144" target="TVm7w0jnragQNhiyeoIk-91" edge="1">
          <mxGeometry relative="1" as="geometry">
            <Array as="points">
              <mxPoint x="1320" y="-3118" />
              <mxPoint x="1320" y="-3890" />
              <mxPoint x="1110" y="-3890" />
              <mxPoint x="1110" y="-4882" />
            </Array>
          </mxGeometry>
        </mxCell>
        <mxCell id="TVm7w0jnragQNhiyeoIk-183" value="&lt;font face=&quot;Times New Roman&quot; style=&quot;font-size: 18px;&quot;&gt;&lt;b&gt;Association&lt;/b&gt;&lt;/font&gt;" style="text;html=1;align=center;verticalAlign=middle;whiteSpace=wrap;rounded=0;rotation=89;" parent="1" vertex="1">
          <mxGeometry x="1250" y="-3449.99" width="220" height="79.99" as="geometry" />
        </mxCell>
        <mxCell id="TVm7w0jnragQNhiyeoIk-184" style="edgeStyle=orthogonalEdgeStyle;rounded=0;orthogonalLoop=1;jettySize=auto;html=1;entryX=-0.013;entryY=0.271;entryDx=0;entryDy=0;entryPerimeter=0;" parent="1" source="TVm7w0jnragQNhiyeoIk-146" target="TVm7w0jnragQNhiyeoIk-50" edge="1">
          <mxGeometry relative="1" as="geometry">
            <Array as="points">
              <mxPoint x="820" y="-2540" />
              <mxPoint x="-1830" y="-2540" />
              <mxPoint x="-1830" y="-4286" />
            </Array>
          </mxGeometry>
        </mxCell>
        <mxCell id="TVm7w0jnragQNhiyeoIk-185" value="&lt;font face=&quot;Times New Roman&quot; style=&quot;font-size: 18px;&quot;&gt;&lt;b&gt;Association&lt;/b&gt;&lt;/font&gt;" style="text;html=1;align=center;verticalAlign=middle;whiteSpace=wrap;rounded=0;" parent="1" vertex="1">
          <mxGeometry x="-390" y="-2610" width="350" height="90" as="geometry" />
        </mxCell>
        <mxCell id="TVm7w0jnragQNhiyeoIk-186" style="edgeStyle=orthogonalEdgeStyle;rounded=0;orthogonalLoop=1;jettySize=auto;html=1;curved=1;" parent="1" source="TVm7w0jnragQNhiyeoIk-82" edge="1">
          <mxGeometry relative="1" as="geometry">
            <mxPoint x="-830" y="-4580" as="targetPoint" />
            <Array as="points">
              <mxPoint x="-700" y="-4530" />
              <mxPoint x="-830" y="-4530" />
            </Array>
          </mxGeometry>
        </mxCell>
        <mxCell id="TVm7w0jnragQNhiyeoIk-187" value="&lt;font face=&quot;Times New Roman&quot; style=&quot;font-size: 18px;&quot;&gt;&lt;b&gt;Dependance&lt;/b&gt;&lt;/font&gt;" style="text;html=1;align=center;verticalAlign=middle;whiteSpace=wrap;rounded=0;rotation=60;" parent="1" vertex="1">
          <mxGeometry x="-720" y="-4520" width="60" height="30" as="geometry" />
        </mxCell>
        <mxCell id="TVm7w0jnragQNhiyeoIk-188" style="edgeStyle=orthogonalEdgeStyle;rounded=0;orthogonalLoop=1;jettySize=auto;html=1;entryX=0.75;entryY=0;entryDx=0;entryDy=0;curved=1;" parent="1" source="TVm7w0jnragQNhiyeoIk-93" target="TVm7w0jnragQNhiyeoIk-98" edge="1">
          <mxGeometry relative="1" as="geometry" />
        </mxCell>
        <mxCell id="TVm7w0jnragQNhiyeoIk-189" value="&lt;font face=&quot;Times New Roman&quot; style=&quot;font-size: 18px;&quot;&gt;&lt;b&gt;Association&lt;/b&gt;&lt;/font&gt;" style="text;html=1;align=center;verticalAlign=middle;whiteSpace=wrap;rounded=0;rotation=-73;" parent="1" vertex="1">
          <mxGeometry x="460" y="-4650" width="60" height="30" as="geometry" />
        </mxCell>
        <mxCell id="TVm7w0jnragQNhiyeoIk-191" style="edgeStyle=orthogonalEdgeStyle;rounded=0;orthogonalLoop=1;jettySize=auto;html=1;entryX=1.013;entryY=0.866;entryDx=0;entryDy=0;entryPerimeter=0;curved=1;" parent="1" source="TVm7w0jnragQNhiyeoIk-93" target="TVm7w0jnragQNhiyeoIk-103" edge="1">
          <mxGeometry relative="1" as="geometry">
            <Array as="points">
              <mxPoint x="913" y="-4706" />
              <mxPoint x="913" y="-4540" />
              <mxPoint x="950" y="-4540" />
              <mxPoint x="950" y="-4350" />
            </Array>
          </mxGeometry>
        </mxCell>
        <mxCell id="TVm7w0jnragQNhiyeoIk-192" value="&lt;b&gt;&lt;font face=&quot;Times New Roman&quot; style=&quot;font-size: 18px;&quot;&gt;Association&lt;/font&gt;&lt;/b&gt;" style="text;html=1;align=center;verticalAlign=middle;whiteSpace=wrap;rounded=0;rotation=60;" parent="1" vertex="1">
          <mxGeometry x="860" y="-4540" width="60" height="30" as="geometry" />
        </mxCell>
        <mxCell id="TVm7w0jnragQNhiyeoIk-197" value="&lt;font face=&quot;Times New Roman&quot; style=&quot;font-size: 36px;&quot;&gt;&lt;b style=&quot;&quot;&gt;&lt;span style=&quot;margin: 0px; padding: 0px; border: 0px; vertical-align: baseline; outline: 0px; white-space-collapse: break-spaces;&quot;&gt;Ce modèle UML représente un système de gestion immobilière complet qui inclut des fonctionnalités pour la gestion des clients&lt;/span&gt;&lt;span style=&quot;margin: 0px; padding: 0px; border: 0px; vertical-align: baseline; outline: 0px; white-space-collapse: break-spaces;&quot;&gt;, des transactions&lt;/span&gt;&lt;span style=&quot;margin: 0px; padding: 0px; border: 0px; vertical-align: baseline; outline: 0px; white-space-collapse: break-spaces;&quot;&gt;, des biens et des rendez&lt;/span&gt;&lt;span style=&quot;margin: 0px; padding: 0px; border: 0px; vertical-align: baseline; outline: 0px; white-space-collapse: break-spaces;&quot;&gt;-vous&lt;/span&gt;&lt;span style=&quot;margin: 0px; padding: 0px; border: 0px; vertical-align: baseline; outline: 0px; white-space-collapse: break-spaces;&quot;&gt;.&lt;/span&gt;&lt;span style=&quot;margin: 0px; padding: 0px; border: 0px; vertical-align: baseline; outline: 0px; white-space-collapse: break-spaces;&quot;&gt;&lt;br&gt;&lt;br&gt;&lt;u&gt;&lt;i&gt;Les paquets principaux comprennent &lt;/i&gt;&lt;/u&gt;&lt;/span&gt;&lt;span style=&quot;margin: 0px; padding: 0px; border: 0px; vertical-align: baseline; outline: 0px; white-space-collapse: break-spaces;&quot;&gt;&lt;u&gt;&lt;i&gt;:&lt;/i&gt;&lt;/u&gt;&lt;br&gt;La gestion des biens immobiliers comprend des fonctionnalités telles que la recherche&lt;/span&gt;&lt;span style=&quot;margin: 0px; padding: 0px; border: 0px; vertical-align: baseline; outline: 0px; white-space-collapse: break-spaces;&quot;&gt;, la modification et la suppression&lt;/span&gt;&lt;span style=&quot;margin: 0px; padding: 0px; border: 0px; vertical-align: baseline; outline: 0px; white-space-collapse: break-spaces;&quot;&gt;.&lt;br&gt;La gestion des clients comprend la gestion des interactions&lt;/span&gt;&lt;span style=&quot;margin: 0px; padding: 0px; border: 0px; vertical-align: baseline; outline: 0px; white-space-collapse: break-spaces;&quot;&gt;, des demandes et des préférences des clients&lt;/span&gt;&lt;span style=&quot;margin: 0px; padding: 0px; border: 0px; vertical-align: baseline; outline: 0px; white-space-collapse: break-spaces;&quot;&gt;.&lt;br&gt;GestionTransactions &lt;/span&gt;&lt;span style=&quot;margin: 0px; padding: 0px; border: 0px; vertical-align: baseline; outline: 0px; white-space-collapse: break-spaces;&quot;&gt;: offre des fonctionnalités de gestion des transactions immobilières telles que le suivi des paiements et la création de contrats&lt;/span&gt;&lt;span style=&quot;margin: 0px; padding: 0px; border: 0px; vertical-align: baseline; outline: 0px; white-space-collapse: break-spaces;&quot;&gt;.&lt;br&gt;Rendez&lt;/span&gt;&lt;span style=&quot;margin: 0px; padding: 0px; border: 0px; vertical-align: baseline; outline: 0px; white-space-collapse: break-spaces;&quot;&gt;-Vous &lt;/span&gt;&lt;span style=&quot;margin: 0px; padding: 0px; border: 0px; vertical-align: baseline; outline: 0px; white-space-collapse: break-spaces;&quot;&gt;: Facilite la planification&lt;/span&gt;&lt;span style=&quot;margin: 0px; padding: 0px; border: 0px; vertical-align: baseline; outline: 0px; white-space-collapse: break-spaces;&quot;&gt;, l&lt;/span&gt;&lt;span style=&quot;margin: 0px; padding: 0px; border: 0px; vertical-align: baseline; outline: 0px; white-space-collapse: break-spaces;&quot;&gt;&#39;annulation et la modification des rendez&lt;/span&gt;&lt;span style=&quot;margin: 0px; padding: 0px; border: 0px; vertical-align: baseline; outline: 0px; white-space-collapse: break-spaces;&quot;&gt;-vous entre les clients&lt;/span&gt;&lt;span style=&quot;margin: 0px; padding: 0px; border: 0px; vertical-align: baseline; outline: 0px; white-space-collapse: break-spaces;&quot;&gt;, les agents immobiliers et les biens&lt;/span&gt;&lt;span style=&quot;margin: 0px; padding: 0px; border: 0px; vertical-align: baseline; outline: 0px; white-space-collapse: break-spaces;&quot;&gt;.&lt;/span&gt;&lt;/b&gt;&lt;/font&gt;&lt;div&gt;&lt;font face=&quot;Times New Roman&quot;&gt;&lt;span style=&quot;font-size: 36px; white-space-collapse: break-spaces;&quot;&gt;&lt;b&gt;&lt;br&gt;&lt;/b&gt;&lt;/span&gt;&lt;/font&gt;&lt;div&gt;&lt;div&gt;&lt;ol style=&quot;margin: 0px; padding: 0px; border: 0px; vertical-align: baseline; list-style: none; min-height: 0px; overflow: hidden;&quot; tabindex=&quot;0&quot; data-list-id=&quot;chat-messages&quot; role=&quot;list&quot; aria-label=&quot;Messages sur&quot; class=&quot;scrollerInner__37fee&quot;&gt;&lt;li style=&quot;margin: 0px; padding: 0px; border: 0px; vertical-align: baseline; outline: none; position: relative;&quot; aria-setsize=&quot;-1&quot; class=&quot;messageListItem__050f9&quot; id=&quot;chat-messages-1172477702733828189-1226564934616354846&quot;&gt;&lt;div style=&quot;margin: 0px; padding-top: var(--custom-message-spacing-vertical-container-cozy); padding-bottom: var(--custom-message-spacing-vertical-container-cozy); padding-left: var(--custom-message-margin-left-content-cozy); border: 0px; vertical-align: baseline; outline: 0px; position: relative; overflow-wrap: break-word; user-select: text; flex: 0 0 auto; min-height: 1.375rem; padding-right: 48px !important;&quot; aria-labelledby=&quot;message-username-1226564574128508928 uid_1 message-content-1226564934616354846 uid_2 message-timestamp-1226564934616354846&quot; aria-roledescription=&quot;Message&quot; aria-setsize=&quot;-1&quot; tabindex=&quot;-1&quot; data-list-item-id=&quot;chat-messages___chat-messages-1172477702733828189-1226564934616354846&quot; role=&quot;article&quot; class=&quot;message_ccca67 cozyMessage__9f4fd wrapper_a62503 cozy_f5c119 zalgo__39311&quot;&gt;&lt;div style=&quot;margin: 0px; padding: 0px; border: 0px; vertical-align: baseline; outline: 0px; position: static;&quot; class=&quot;contents_d3ae0d&quot;&gt;&lt;div style=&quot;margin-top: 0px; margin-right: 0px; margin-bottom: 0px; margin-left: calc(-1*var(--custom-message-margin-left-content-cozy)); padding-top: 0px; padding-right: 0px; padding-bottom: 0px; padding-left: var(--custom-message-margin-left-content-cozy); border: 0px; vertical-align: baseline; outline: 0px; line-height: 1.375rem; white-space-collapse: break-spaces; overflow-wrap: break-word; user-select: text; position: relative; overflow: hidden;&quot; class=&quot;markup_a7e664 messageContent_abea64&quot; id=&quot;message-content-1226564934616354846&quot;&gt;&lt;font face=&quot;Times New Roman&quot; style=&quot;font-size: 36px;&quot;&gt;&lt;b style=&quot;&quot;&gt;&lt;span style=&quot;margin: 0px; padding: 0px; border: 0px; vertical-align: baseline; outline: 0px;&quot;&gt;&lt;i&gt;&lt;u&gt;Principales classes et interfaces:&lt;/u&gt;&lt;/i&gt;&lt;/span&gt;&lt;/b&gt;&lt;/font&gt;&lt;/div&gt;&lt;/div&gt;&lt;/div&gt;&lt;/li&gt;&lt;/ol&gt;&lt;div&gt;&lt;span style=&quot;margin: 0px; padding: 0px; border: 0px; font-family: &amp;quot;gg sans&amp;quot;, &amp;quot;Noto Sans&amp;quot;, &amp;quot;Helvetica Neue&amp;quot;, Helvetica, Arial, sans-serif; font-size: 16px; vertical-align: baseline; outline: 0px; color: rgb(219, 222, 225); white-space-collapse: break-spaces; background-color: rgba(2, 2, 2, 0.06);&quot;&gt;I&lt;/span&gt;&lt;font style=&quot;font-size: 36px;&quot; face=&quot;Times New Roman&quot;&gt;&lt;b&gt;&lt;span style=&quot;margin: 0px; padding: 0px; border: 0px; vertical-align: baseline; outline: 0px; white-space-collapse: break-spaces;&quot;&gt;BienImmobilier&lt;/span&gt;&lt;span style=&quot;margin: 0px; padding: 0px; border: 0px; vertical-align: baseline; outline: 0px; white-space-collapse: break-spaces;&quot;&gt;: Interface pour la gestion des biens immobiliers&lt;/span&gt;&lt;span style=&quot;margin: 0px; padding: 0px; border: 0px; vertical-align: baseline; outline: 0px; white-space-collapse: break-spaces;&quot;&gt;, offrant des méthodes pour accéder et modifier les informations des biens&lt;/span&gt;&lt;span style=&quot;margin: 0px; padding: 0px; border: 0px; vertical-align: baseline; outline: 0px; white-space-collapse: break-spaces;&quot;&gt;.&lt;/span&gt;&lt;/b&gt;&lt;/font&gt;&lt;font face=&quot;Times New Roman&quot;&gt;&lt;span style=&quot;font-size: 36px; white-space-collapse: break-spaces;&quot;&gt;&lt;b&gt;&lt;i&gt;&lt;u&gt;&lt;br&gt;&lt;/u&gt;&lt;/i&gt;&lt;/b&gt;&lt;/span&gt;&lt;/font&gt;&lt;/div&gt;&lt;ol style=&quot;margin: 0px; padding: 0px; border: 0px; vertical-align: baseline; list-style: none; min-height: 0px; overflow: hidden;&quot; tabindex=&quot;0&quot; data-list-id=&quot;chat-messages&quot; role=&quot;list&quot; aria-label=&quot;Messages sur&quot; class=&quot;scrollerInner__37fee&quot;&gt;&lt;li style=&quot;margin: 0px; padding: 0px; border: 0px; font-style: inherit; vertical-align: baseline; outline: none; position: relative;&quot; aria-setsize=&quot;-1&quot; class=&quot;messageListItem__050f9&quot; id=&quot;chat-messages-1172477702733828189-1226564934616354846&quot;&gt;&lt;div style=&quot;margin-top: 0px; margin-right: 0px; margin-bottom: 0px; margin-left: calc(-1*var(--custom-message-margin-left-content-cozy)); padding-top: 0px; padding-right: 0px; padding-bottom: 0px; padding-left: var(--custom-message-margin-left-content-cozy); border: 0px; font-style: inherit; vertical-align: baseline; outline: 0px; line-height: 1.375rem; white-space-collapse: break-spaces; overflow-wrap: break-word; user-select: text; position: relative; overflow: hidden;&quot; class=&quot;markup_a7e664 messageContent_abea64&quot; id=&quot;message-content-1226564934616354846&quot;&gt;&lt;font face=&quot;Times New Roman&quot; style=&quot;font-size: 36px;&quot;&gt;&lt;b&gt;&lt;span style=&quot;margin: 0px; padding: 0px; border: 0px; font-style: inherit; vertical-align: baseline; outline: 0px;&quot;&gt;&lt;br&gt;&lt;/span&gt;&lt;/b&gt;&lt;/font&gt;&lt;/div&gt;&lt;/li&gt;&lt;li style=&quot;margin: 0px; padding: 0px; border: 0px; font-style: inherit; vertical-align: baseline; outline: none; position: relative;&quot; aria-setsize=&quot;-1&quot; class=&quot;messageListItem__050f9&quot; id=&quot;chat-messages-1172477702733828189-1226566075609780405&quot;&gt;&lt;div style=&quot;margin: 0px; padding-top: var(--custom-message-spacing-vertical-container-cozy); padding-bottom: var(--custom-message-spacing-vertical-container-cozy); padding-left: var(--custom-message-margin-left-content-cozy); border: 0px; font-style: inherit; vertical-align: baseline; outline: 0px; position: relative; overflow-wrap: break-word; user-select: text; flex: 0 0 auto; min-height: 1.375rem; padding-right: 48px !important;&quot; aria-labelledby=&quot;message-username-1226564574128508928 uid_1 message-content-1226566075609780405 uid_2 message-timestamp-1226566075609780405&quot; aria-roledescription=&quot;Message&quot; aria-setsize=&quot;-1&quot; tabindex=&quot;-1&quot; data-list-item-id=&quot;chat-messages___chat-messages-1172477702733828189-1226566075609780405&quot; role=&quot;article&quot; class=&quot;message_ccca67 cozyMessage__9f4fd wrapper_a62503 cozy_f5c119 zalgo__39311&quot;&gt;&lt;div style=&quot;margin: 0px; padding: 0px; border: 0px; font-style: inherit; vertical-align: baseline; outline: 0px; position: static;&quot; class=&quot;contents_d3ae0d&quot;&gt;&lt;div style=&quot;margin-top: 0px; margin-right: 0px; margin-bottom: 0px; margin-left: calc(-1*var(--custom-message-margin-left-content-cozy)); padding-top: 0px; padding-right: 0px; padding-bottom: 0px; padding-left: var(--custom-message-margin-left-content-cozy); border: 0px; font-style: inherit; vertical-align: baseline; outline: 0px; line-height: 1.375rem; white-space-collapse: break-spaces; overflow-wrap: break-word; user-select: text; position: relative; overflow: hidden;&quot; class=&quot;markup_a7e664 messageContent_abea64&quot; id=&quot;message-content-1226566075609780405&quot;&gt;&lt;font face=&quot;XUGfe6xawbtaPI5KYUEY&quot; style=&quot;font-size: 36px;&quot;&gt;&lt;b&gt;&lt;span style=&quot;margin: 0px; padding: 0px; border: 0px; font-style: inherit; vertical-align: baseline; outline: 0px;&quot;&gt;AgentImmobilier&lt;/span&gt;&lt;span style=&quot;margin: 0px; padding: 0px; border: 0px; font-style: inherit; vertical-align: baseline; outline: 0px;&quot;&gt;: Représente un agent immobilier avec ses fonctionnalités de gestion des biens et des interactions&lt;/span&gt;&lt;span style=&quot;margin: 0px; padding: 0px; border: 0px; font-style: inherit; vertical-align: baseline; outline: 0px;&quot;&gt;.&lt;/span&gt;&lt;/b&gt;&lt;/font&gt;&lt;/div&gt;&lt;/div&gt;&lt;/div&gt;&lt;/li&gt;&lt;li style=&quot;margin: 0px; padding: 0px; border: 0px; font-style: inherit; vertical-align: baseline; outline: none; position: relative;&quot; aria-setsize=&quot;-1&quot; class=&quot;messageListItem__050f9&quot; id=&quot;chat-messages-1172477702733828189-1226566075609780405&quot;&gt;&lt;div style=&quot;margin-top: 0px; margin-right: 0px; margin-bottom: 0px; margin-left: calc(-1*var(--custom-message-margin-left-content-cozy)); padding-top: 0px; padding-right: 0px; padding-bottom: 0px; padding-left: var(--custom-message-margin-left-content-cozy); border: 0px; font-style: inherit; vertical-align: baseline; outline: 0px; line-height: 1.375rem; white-space-collapse: break-spaces; overflow-wrap: break-word; user-select: text; position: relative; overflow: hidden;&quot; class=&quot;markup_a7e664 messageContent_abea64&quot; id=&quot;message-content-1226566075609780405&quot;&gt;&lt;font face=&quot;XUGfe6xawbtaPI5KYUEY&quot; style=&quot;font-size: 36px;&quot;&gt;&lt;b&gt;&lt;span style=&quot;margin: 0px; padding: 0px; border: 0px; font-style: inherit; vertical-align: baseline; outline: 0px;&quot;&gt;&lt;br&gt;IClient&lt;/span&gt;&lt;span style=&quot;margin: 0px; padding: 0px; border: 0px; font-style: inherit; vertical-align: baseline; outline: 0px;&quot;&gt;: Interface pour la gestion des clients&lt;/span&gt;&lt;span style=&quot;margin: 0px; padding: 0px; border: 0px; font-style: inherit; vertical-align: baseline; outline: 0px;&quot;&gt;, fournissant des méthodes pour accéder et modifier les informations des clients&lt;/span&gt;&lt;span style=&quot;margin: 0px; padding: 0px; border: 0px; font-style: inherit; vertical-align: baseline; outline: 0px;&quot;&gt;.&lt;/span&gt;&lt;/b&gt;&lt;/font&gt;&lt;/div&gt;&lt;/li&gt;&lt;li style=&quot;margin: 0px; padding: 0px; border: 0px; font-style: inherit; vertical-align: baseline; outline: none; position: relative;&quot; aria-setsize=&quot;-1&quot; class=&quot;messageListItem__050f9&quot; id=&quot;chat-messages-1172477702733828189-1226566075609780405&quot;&gt;&lt;div style=&quot;margin-top: 0px; margin-right: 0px; margin-bottom: 0px; margin-left: calc(-1*var(--custom-message-margin-left-content-cozy)); padding-top: 0px; padding-right: 0px; padding-bottom: 0px; padding-left: var(--custom-message-margin-left-content-cozy); border: 0px; font-style: inherit; vertical-align: baseline; outline: 0px; line-height: 1.375rem; white-space-collapse: break-spaces; overflow-wrap: break-word; user-select: text; position: relative; overflow: hidden;&quot; class=&quot;markup_a7e664 messageContent_abea64&quot; id=&quot;message-content-1226566075609780405&quot;&gt;&lt;font face=&quot;XUGfe6xawbtaPI5KYUEY&quot; style=&quot;font-size: 36px;&quot;&gt;&lt;b&gt;&lt;span style=&quot;margin: 0px; padding: 0px; border: 0px; font-style: inherit; vertical-align: baseline; outline: 0px;&quot;&gt;&lt;br&gt;Client&lt;/span&gt;&lt;span style=&quot;margin: 0px; padding: 0px; border: 0px; font-style: inherit; vertical-align: baseline; outline: 0px;&quot;&gt;: Représente un client avec ses attributs et méthodes associées&lt;/span&gt;&lt;span style=&quot;margin: 0px; padding: 0px; border: 0px; font-style: inherit; vertical-align: baseline; outline: 0px;&quot;&gt;, y compris la gestion des interactions&lt;/span&gt;&lt;span style=&quot;margin: 0px; padding: 0px; border: 0px; font-style: inherit; vertical-align: baseline; outline: 0px;&quot;&gt;, des demandes et des préférences&lt;/span&gt;&lt;span style=&quot;margin: 0px; padding: 0px; border: 0px; font-style: inherit; vertical-align: baseline; outline: 0px;&quot;&gt;.&lt;/span&gt;&lt;/b&gt;&lt;/font&gt;&lt;/div&gt;&lt;/li&gt;&lt;li style=&quot;margin: 0px; padding: 0px; border: 0px; font-style: inherit; vertical-align: baseline; outline: none; position: relative;&quot; aria-setsize=&quot;-1&quot; class=&quot;messageListItem__050f9&quot; id=&quot;chat-messages-1172477702733828189-1226566075609780405&quot;&gt;&lt;div style=&quot;margin-top: 0px; margin-right: 0px; margin-bottom: 0px; margin-left: calc(-1*var(--custom-message-margin-left-content-cozy)); padding-top: 0px; padding-right: 0px; padding-bottom: 0px; padding-left: var(--custom-message-margin-left-content-cozy); border: 0px; font-style: inherit; vertical-align: baseline; outline: 0px; line-height: 1.375rem; white-space-collapse: break-spaces; overflow-wrap: break-word; user-select: text; position: relative; overflow: hidden;&quot; class=&quot;markup_a7e664 messageContent_abea64&quot; id=&quot;message-content-1226566075609780405&quot;&gt;&lt;font face=&quot;XUGfe6xawbtaPI5KYUEY&quot; style=&quot;font-size: 36px;&quot;&gt;&lt;b&gt;&lt;span style=&quot;margin: 0px; padding: 0px; border: 0px; font-style: inherit; vertical-align: baseline; outline: 0px;&quot;&gt;&lt;br&gt;Transaction&lt;/span&gt;&lt;span style=&quot;margin: 0px; padding: 0px; border: 0px; font-style: inherit; vertical-align: baseline; outline: 0px;&quot;&gt;: Classe pour la gestion des transactions immobilières entre les clients et les biens&lt;/span&gt;&lt;span style=&quot;margin: 0px; padding: 0px; border: 0px; font-style: inherit; vertical-align: baseline; outline: 0px;&quot;&gt;, avec des fonctionnalités pour la création de contrats et le suivi des paiements&lt;/span&gt;&lt;span style=&quot;margin: 0px; padding: 0px; border: 0px; font-style: inherit; vertical-align: baseline; outline: 0px;&quot;&gt;.&lt;/span&gt;&lt;/b&gt;&lt;/font&gt;&lt;/div&gt;&lt;/li&gt;&lt;li style=&quot;margin: 0px; padding: 0px; border: 0px; font-style: inherit; vertical-align: baseline; outline: none; position: relative;&quot; aria-setsize=&quot;-1&quot; class=&quot;messageListItem__050f9&quot; id=&quot;chat-messages-1172477702733828189-1226566075609780405&quot;&gt;&lt;div style=&quot;margin-top: 0px; margin-right: 0px; margin-bottom: 0px; margin-left: calc(-1*var(--custom-message-margin-left-content-cozy)); padding-top: 0px; padding-right: 0px; padding-bottom: 0px; padding-left: var(--custom-message-margin-left-content-cozy); border: 0px; font-style: inherit; vertical-align: baseline; outline: 0px; line-height: 1.375rem; white-space-collapse: break-spaces; overflow-wrap: break-word; user-select: text; position: relative; overflow: hidden;&quot; class=&quot;markup_a7e664 messageContent_abea64&quot; id=&quot;message-content-1226566075609780405&quot;&gt;&lt;font face=&quot;XUGfe6xawbtaPI5KYUEY&quot; style=&quot;font-size: 36px;&quot;&gt;&lt;b&gt;&lt;span style=&quot;margin: 0px; padding: 0px; border: 0px; font-style: inherit; vertical-align: baseline; outline: 0px;&quot;&gt;&lt;br&gt;RendezVous&lt;/span&gt;&lt;span style=&quot;margin: 0px; padding: 0px; border: 0px; font-style: inherit; vertical-align: baseline; outline: 0px;&quot;&gt;: Classe pour la gestion des rendez&lt;/span&gt;&lt;span style=&quot;margin: 0px; padding: 0px; border: 0px; font-style: inherit; vertical-align: baseline; outline: 0px;&quot;&gt;-vous entre les clients&lt;/span&gt;&lt;span style=&quot;margin: 0px; padding: 0px; border: 0px; font-style: inherit; vertical-align: baseline; outline: 0px;&quot;&gt;, les agents immobiliers et les biens&lt;/span&gt;&lt;span style=&quot;margin: 0px; padding: 0px; border: 0px; font-style: inherit; vertical-align: baseline; outline: 0px;&quot;&gt;, permettant la planification&lt;/span&gt;&lt;span style=&quot;margin: 0px; padding: 0px; border: 0px; font-style: inherit; vertical-align: baseline; outline: 0px;&quot;&gt;, l&lt;/span&gt;&lt;span style=&quot;margin: 0px; padding: 0px; border: 0px; font-style: inherit; vertical-align: baseline; outline: 0px;&quot;&gt;&#39;annulation et la modification des rendez&lt;/span&gt;&lt;span style=&quot;margin: 0px; padding: 0px; border: 0px; font-style: inherit; vertical-align: baseline; outline: 0px;&quot;&gt;-vous&lt;/span&gt;&lt;/b&gt;&lt;span style=&quot;font-weight: inherit; margin: 0px; padding: 0px; border: 0px; font-style: inherit; vertical-align: baseline; outline: 0px;&quot;&gt;.&lt;/span&gt;&lt;/font&gt;&lt;/div&gt;&lt;/li&gt;&lt;/ol&gt;&lt;/div&gt;&lt;/div&gt;&lt;/div&gt;" style="text;html=1;align=left;verticalAlign=middle;whiteSpace=wrap;rounded=0;" parent="1" vertex="1">
          <mxGeometry x="-1560" y="-1940" width="2580" height="890" as="geometry" />
        </mxCell>
        <mxCell id="TVm7w0jnragQNhiyeoIk-199" value="&lt;font face=&quot;Times New Roman&quot; style=&quot;font-size: 72px;&quot;&gt;&lt;b style=&quot;&quot;&gt;&lt;i style=&quot;&quot;&gt;MODELE CONCEPTUEL D&#39;UNE AGENCE IMMOBILIERE&lt;/i&gt;&lt;/b&gt;&lt;/font&gt;" style="text;html=1;align=center;verticalAlign=middle;whiteSpace=wrap;rounded=0;" parent="1" vertex="1">
          <mxGeometry x="-1460" y="-6100" width="2660" height="450" as="geometry" />
        </mxCell>
      </root>
    </mxGraphModel>
  </diagram>
</mxfile>
